G04 #@! TF.GenerationSoftware,KiCad,Pcbnew,9.0.2*
G04 #@! TF.CreationDate,2025-06-21T22:02:29+02:00*
G04 #@! TF.ProjectId,Keychain,4b657963-6861-4696-9e2e-6b696361645f,rev?*
G04 #@! TF.SameCoordinates,Original*
G04 #@! TF.FileFunction,Legend,Bot*
G04 #@! TF.FilePolarity,Positive*
%FSLAX46Y46*%
G04 Gerber Fmt 4.6, Leading zero omitted, Abs format (unit mm)*
G04 Created by KiCad (PCBNEW 9.0.2) date 2025-06-21 22:02:29*
%MOMM*%
%LPD*%
G01*
G04 APERTURE LIST*
G04 Aperture macros list*
%AMRoundRect*
0 Rectangle with rounded corners*
0 $1 Rounding radius*
0 $2 $3 $4 $5 $6 $7 $8 $9 X,Y pos of 4 corners*
0 Add a 4 corners polygon primitive as box body*
4,1,4,$2,$3,$4,$5,$6,$7,$8,$9,$2,$3,0*
0 Add four circle primitives for the rounded corners*
1,1,$1+$1,$2,$3*
1,1,$1+$1,$4,$5*
1,1,$1+$1,$6,$7*
1,1,$1+$1,$8,$9*
0 Add four rect primitives between the rounded corners*
20,1,$1+$1,$2,$3,$4,$5,0*
20,1,$1+$1,$4,$5,$6,$7,0*
20,1,$1+$1,$6,$7,$8,$9,0*
20,1,$1+$1,$8,$9,$2,$3,0*%
G04 Aperture macros list end*
%ADD10C,0.100000*%
%ADD11C,0.150000*%
%ADD12C,0.000000*%
%ADD13C,0.120000*%
%ADD14C,1.600000*%
%ADD15R,1.800000X1.800000*%
%ADD16C,1.800000*%
%ADD17R,1.700000X1.700000*%
%ADD18C,1.700000*%
%ADD19R,1.800000X1.100000*%
%ADD20RoundRect,0.275000X0.625000X-0.275000X0.625000X0.275000X-0.625000X0.275000X-0.625000X-0.275000X0*%
%ADD21C,2.000000*%
%ADD22R,1.270000X5.080000*%
%ADD23C,17.800000*%
G04 APERTURE END LIST*
D10*
G36*
X188726936Y-128487166D02*
G01*
X187549197Y-128413161D01*
X187511505Y-128601942D01*
X187458574Y-128745036D01*
X187393370Y-128851577D01*
X187289092Y-128957072D01*
X187166080Y-129032351D01*
X187020593Y-129079080D01*
X186846998Y-129095575D01*
X186674385Y-129080042D01*
X186541168Y-129037655D01*
X186438624Y-128971988D01*
X186356720Y-128882173D01*
X186310353Y-128787788D01*
X186295010Y-128685491D01*
X186309496Y-128588057D01*
X186353515Y-128496679D01*
X186431541Y-128408276D01*
X186534122Y-128342079D01*
X186730448Y-128264959D01*
X187065596Y-128177466D01*
X187485945Y-128065835D01*
X187808395Y-127946054D01*
X188050264Y-127821253D01*
X188226726Y-127693377D01*
X188380955Y-127530358D01*
X188488758Y-127350417D01*
X188554001Y-127149904D01*
X188576482Y-126923279D01*
X188556871Y-126723450D01*
X188497960Y-126530874D01*
X188397452Y-126342226D01*
X188262406Y-126177159D01*
X188085314Y-126033987D01*
X187859141Y-125912358D01*
X187614016Y-125831131D01*
X187291688Y-125776256D01*
X186874109Y-125755799D01*
X186481725Y-125777182D01*
X186163873Y-125835931D01*
X185908021Y-125925564D01*
X185703453Y-126042051D01*
X185528106Y-126199646D01*
X185389626Y-126398519D01*
X185287106Y-126646117D01*
X185223761Y-126953077D01*
X186390509Y-127021953D01*
X186436499Y-126846869D01*
X186502396Y-126718061D01*
X186585903Y-126625547D01*
X186691889Y-126559418D01*
X186826409Y-126517093D01*
X186997208Y-126501716D01*
X187195376Y-126527070D01*
X187322539Y-126592819D01*
X187405032Y-126694814D01*
X187431716Y-126814103D01*
X187410455Y-126901902D01*
X187341590Y-126985073D01*
X187221118Y-127051193D01*
X186926133Y-127131863D01*
X186381501Y-127263098D01*
X186007277Y-127380495D01*
X185763537Y-127484061D01*
X185542203Y-127618451D01*
X185374649Y-127765722D01*
X185252581Y-127926140D01*
X185164163Y-128107856D01*
X185110800Y-128303449D01*
X185092602Y-128516475D01*
X185116357Y-128765955D01*
X185186913Y-129000385D01*
X185305826Y-129224047D01*
X185464995Y-129420867D01*
X185661894Y-129584025D01*
X185901534Y-129715219D01*
X186161986Y-129803941D01*
X186479828Y-129861658D01*
X186866049Y-129882526D01*
X187300580Y-129861922D01*
X187644821Y-129805986D01*
X187914377Y-129722097D01*
X188122851Y-129615430D01*
X188281437Y-129488562D01*
X188455355Y-129280381D01*
X188586969Y-129046997D01*
X188677865Y-128784409D01*
X188726936Y-128487166D01*
G37*
G36*
X184544033Y-126912533D02*
G01*
X183508443Y-126912533D01*
X183508443Y-127389295D01*
X183343894Y-127205182D01*
X183187727Y-127069493D01*
X183038520Y-126974570D01*
X182875390Y-126907519D01*
X182684076Y-126865062D01*
X182459176Y-126850006D01*
X182230741Y-126868923D01*
X182038249Y-126922365D01*
X181875106Y-127007604D01*
X181736461Y-127125024D01*
X181629443Y-127268504D01*
X181548055Y-127451423D01*
X181494820Y-127682837D01*
X181475366Y-127974012D01*
X181475366Y-129820000D01*
X182593021Y-129820000D01*
X182593021Y-128225094D01*
X182606872Y-128044849D01*
X182642557Y-127921099D01*
X182694137Y-127838702D01*
X182768445Y-127777060D01*
X182861342Y-127738980D01*
X182978436Y-127725373D01*
X183106068Y-127742740D01*
X183213735Y-127793079D01*
X183306454Y-127878269D01*
X183369313Y-127988925D01*
X183414210Y-128163572D01*
X183431995Y-128427327D01*
X183431995Y-129820000D01*
X184544033Y-129820000D01*
X184544033Y-126912533D01*
G37*
G36*
X179597552Y-126869131D02*
G01*
X179867376Y-126923744D01*
X180104988Y-127010950D01*
X180314908Y-127129604D01*
X180500592Y-127280362D01*
X180696108Y-127509375D01*
X180834591Y-127764214D01*
X180919224Y-128050134D01*
X180948534Y-128374570D01*
X180926354Y-128654834D01*
X180862133Y-128905765D01*
X180757348Y-129132462D01*
X180610766Y-129338844D01*
X180418527Y-129527397D01*
X180194711Y-129678013D01*
X179936044Y-129788547D01*
X179636179Y-129858027D01*
X179287194Y-129882526D01*
X178969537Y-129863250D01*
X178693386Y-129808463D01*
X178452769Y-129721469D01*
X178242651Y-129603792D01*
X178059141Y-129455101D01*
X177865831Y-129227552D01*
X177728503Y-128972841D01*
X177644328Y-128685528D01*
X177615107Y-128357962D01*
X177615441Y-128353810D01*
X178732518Y-128353810D01*
X178753230Y-128623145D01*
X178807384Y-128814443D01*
X178886880Y-128947320D01*
X179000275Y-129050647D01*
X179130022Y-129111378D01*
X179281821Y-129132212D01*
X179431608Y-129111285D01*
X179561451Y-129049872D01*
X179676761Y-128944633D01*
X179758421Y-128809987D01*
X179813148Y-128622314D01*
X179833809Y-128364801D01*
X179813111Y-128111320D01*
X179758017Y-127924798D01*
X179675296Y-127789364D01*
X179559001Y-127683531D01*
X179426956Y-127621525D01*
X179273516Y-127600321D01*
X179129025Y-127620923D01*
X179002335Y-127681744D01*
X178888345Y-127786678D01*
X178807037Y-127920148D01*
X178752871Y-128103980D01*
X178732518Y-128353810D01*
X177615441Y-128353810D01*
X177638650Y-128064872D01*
X177706722Y-127803565D01*
X177817693Y-127568471D01*
X177972923Y-127355345D01*
X178159888Y-127179783D01*
X178379276Y-127041065D01*
X178636030Y-126938246D01*
X178936906Y-126873100D01*
X179290125Y-126850006D01*
X179597552Y-126869131D01*
G37*
G36*
X177068980Y-126912533D02*
G01*
X176028017Y-126912533D01*
X176028017Y-127387585D01*
X175916564Y-127188386D01*
X175813461Y-127052514D01*
X175717829Y-126965533D01*
X175606021Y-126902685D01*
X175475824Y-126863707D01*
X175322888Y-126850006D01*
X175162026Y-126865125D01*
X174983894Y-126913243D01*
X174784577Y-126999972D01*
X175128959Y-127792051D01*
X175317740Y-127727085D01*
X175440369Y-127709741D01*
X175576457Y-127730273D01*
X175687246Y-127789519D01*
X175779134Y-127890725D01*
X175863508Y-128072653D01*
X175926062Y-128374080D01*
X175951325Y-128844249D01*
X175951325Y-129820000D01*
X177068980Y-129820000D01*
X177068980Y-126912533D01*
G37*
G36*
X174372539Y-125818325D02*
G01*
X173257815Y-125818325D01*
X173257815Y-129820000D01*
X174372539Y-129820000D01*
X174372539Y-125818325D01*
G37*
G36*
X171401558Y-126862022D02*
G01*
X171675121Y-126896413D01*
X171926366Y-126956010D01*
X172095952Y-127027083D01*
X172288536Y-127158682D01*
X172422504Y-127303810D01*
X172518212Y-127482019D01*
X172595917Y-127741004D01*
X171532972Y-127850425D01*
X171451974Y-127684544D01*
X171360781Y-127593970D01*
X171204138Y-127531536D01*
X170950941Y-127506531D01*
X170758497Y-127530832D01*
X170653209Y-127590062D01*
X170592986Y-127693716D01*
X170568457Y-127881688D01*
X170961932Y-128014068D01*
X171773551Y-128190167D01*
X172115696Y-128282227D01*
X172344502Y-128389520D01*
X172489427Y-128506706D01*
X172595585Y-128658656D01*
X172660565Y-128837273D01*
X172683356Y-129049902D01*
X172666314Y-129220062D01*
X172616492Y-129373196D01*
X172533558Y-129513139D01*
X172414200Y-129642435D01*
X172274355Y-129741763D01*
X172101343Y-129816605D01*
X171888133Y-129865016D01*
X171626028Y-129882526D01*
X171367627Y-129868059D01*
X171140414Y-129826797D01*
X170940195Y-129761137D01*
X170730993Y-129644989D01*
X170505687Y-129457787D01*
X170467585Y-129645854D01*
X170385519Y-129820000D01*
X169341625Y-129820000D01*
X169417503Y-129645617D01*
X169455198Y-129523244D01*
X169473677Y-129395904D01*
X169481088Y-129201821D01*
X169481088Y-128619302D01*
X170568457Y-128619302D01*
X170586743Y-128812326D01*
X170635380Y-128951960D01*
X170722136Y-129066686D01*
X170862281Y-129168604D01*
X171028183Y-129235005D01*
X171207885Y-129257264D01*
X171370426Y-129234711D01*
X171477040Y-129175198D01*
X171545437Y-129082029D01*
X171568631Y-128963928D01*
X171546195Y-128858572D01*
X171475819Y-128761939D01*
X171350945Y-128686918D01*
X171046684Y-128587062D01*
X170568457Y-128444424D01*
X170568457Y-128619302D01*
X169481088Y-128619302D01*
X169481088Y-127919302D01*
X169500810Y-127713274D01*
X169563153Y-127488702D01*
X169663557Y-127283264D01*
X169787124Y-127139923D01*
X169930055Y-127036751D01*
X170097175Y-126958647D01*
X170292707Y-126906182D01*
X170620309Y-126865847D01*
X171095777Y-126850006D01*
X171401558Y-126862022D01*
G37*
G36*
X169066119Y-126912533D02*
G01*
X167746475Y-126912533D01*
X167284612Y-127722930D01*
X166748987Y-126912533D01*
X165522155Y-126912533D01*
X166511339Y-128297878D01*
X165451081Y-129820000D01*
X166748987Y-129820000D01*
X167284612Y-128883817D01*
X167915735Y-129820000D01*
X169120830Y-129820000D01*
X168066189Y-128297878D01*
X169066119Y-126912533D01*
G37*
G36*
X163431925Y-127928583D02*
G01*
X161814305Y-127928583D01*
X161814305Y-128788318D01*
X163431925Y-128788318D01*
X163431925Y-127928583D01*
G37*
G36*
X159422190Y-129820000D02*
G01*
X158178994Y-129820000D01*
X158178994Y-128335003D01*
X157501220Y-128335003D01*
X157121923Y-128309692D01*
X156818956Y-128240283D01*
X156578114Y-128133917D01*
X156387961Y-127993796D01*
X156232023Y-127812122D01*
X156118963Y-127598341D01*
X156048130Y-127346079D01*
X156025925Y-127080816D01*
X157228157Y-127080816D01*
X157244556Y-127203145D01*
X157292237Y-127307462D01*
X157372993Y-127398332D01*
X157477958Y-127461025D01*
X157638554Y-127504969D01*
X157875645Y-127522163D01*
X158178994Y-127522163D01*
X158178994Y-126631165D01*
X157826552Y-126631165D01*
X157597631Y-126649532D01*
X157447815Y-126695979D01*
X157353942Y-126762079D01*
X157284102Y-126855496D01*
X157242460Y-126960505D01*
X157228157Y-127080816D01*
X156025925Y-127080816D01*
X156023063Y-127046622D01*
X156046489Y-126753640D01*
X156112199Y-126510198D01*
X156216083Y-126307189D01*
X156357920Y-126137794D01*
X156532968Y-126005795D01*
X156752214Y-125906292D01*
X157025384Y-125841755D01*
X157364689Y-125818325D01*
X159422190Y-125818325D01*
X159422190Y-129820000D01*
G37*
G36*
X152709176Y-128178688D02*
G01*
X151624249Y-128507683D01*
X151714614Y-128803316D01*
X151829926Y-129054583D01*
X151968631Y-129267278D01*
X152138546Y-129454491D01*
X152332224Y-129607154D01*
X152552128Y-129727431D01*
X152789505Y-129809517D01*
X153081456Y-129863094D01*
X153438729Y-129882526D01*
X153872271Y-129858705D01*
X154223304Y-129793286D01*
X154505826Y-129693482D01*
X154698972Y-129585571D01*
X154881805Y-129441628D01*
X155055528Y-129257694D01*
X155220481Y-129028408D01*
X155346455Y-128786730D01*
X155440348Y-128507327D01*
X155499866Y-128184024D01*
X155520899Y-127809637D01*
X155496662Y-127406672D01*
X155428165Y-127060726D01*
X155320096Y-126763387D01*
X155174792Y-126507560D01*
X154992114Y-126287759D01*
X154772899Y-126103097D01*
X154519546Y-125956803D01*
X154226960Y-125848420D01*
X153888470Y-125779960D01*
X153496126Y-125755799D01*
X153112400Y-125777866D01*
X152792628Y-125839339D01*
X152526738Y-125934718D01*
X152306175Y-126060858D01*
X152110513Y-126226644D01*
X151938099Y-126433981D01*
X151788384Y-126688528D01*
X151662595Y-126997773D01*
X152755582Y-127240795D01*
X152819054Y-127072032D01*
X152875749Y-126973105D01*
X152991870Y-126846818D01*
X153130006Y-126754508D01*
X153287105Y-126697635D01*
X153466084Y-126678060D01*
X153668513Y-126700165D01*
X153839339Y-126763368D01*
X153985479Y-126867031D01*
X154110885Y-127015847D01*
X154197453Y-127192160D01*
X154257369Y-127446168D01*
X154280390Y-127802798D01*
X154263514Y-128151867D01*
X154219319Y-128406944D01*
X154155782Y-128588497D01*
X154078157Y-128713824D01*
X153968587Y-128820276D01*
X153840145Y-128896376D01*
X153689065Y-128943614D01*
X153509804Y-128960265D01*
X153281530Y-128935540D01*
X153106798Y-128867645D01*
X152972958Y-128760230D01*
X152868958Y-128617111D01*
X152780112Y-128426876D01*
X152709176Y-128178688D01*
G37*
G36*
X151019992Y-129820000D02*
G01*
X148883112Y-129820000D01*
X148328436Y-129765289D01*
X148036524Y-129706930D01*
X147858513Y-129633886D01*
X147702270Y-129525332D01*
X147570890Y-129394706D01*
X147462351Y-129240167D01*
X147382557Y-129069003D01*
X147334108Y-128883196D01*
X147317515Y-128679385D01*
X147330902Y-128541632D01*
X148558024Y-128541632D01*
X148573310Y-128663293D01*
X148616917Y-128763274D01*
X148689183Y-128846692D01*
X148784293Y-128904378D01*
X148928521Y-128944589D01*
X149140055Y-128960265D01*
X149771179Y-128960265D01*
X149771179Y-128147424D01*
X149142742Y-128147424D01*
X148926884Y-128162563D01*
X148781789Y-128201079D01*
X148687961Y-128255624D01*
X148615885Y-128335215D01*
X148572942Y-128429021D01*
X148558024Y-128541632D01*
X147330902Y-128541632D01*
X147341631Y-128431224D01*
X147410201Y-128221841D01*
X147521213Y-128043377D01*
X147672956Y-127898052D01*
X147880144Y-127778242D01*
X148156245Y-127686294D01*
X147973535Y-127608791D01*
X147831878Y-127519489D01*
X147724423Y-127419337D01*
X147601889Y-127240189D01*
X147528400Y-127039920D01*
X147523780Y-126998262D01*
X148716538Y-126998262D01*
X148730277Y-127117265D01*
X148768459Y-127210149D01*
X148829867Y-127283049D01*
X148912306Y-127332653D01*
X149040703Y-127367685D01*
X149232867Y-127381479D01*
X149771179Y-127381479D01*
X149771179Y-126631165D01*
X149224807Y-126631165D01*
X149038177Y-126644683D01*
X148912054Y-126679195D01*
X148829867Y-126728374D01*
X148767838Y-126800066D01*
X148729962Y-126888340D01*
X148716538Y-126998262D01*
X147523780Y-126998262D01*
X147503139Y-126812149D01*
X147522951Y-126607527D01*
X147580701Y-126424137D01*
X147676386Y-126257434D01*
X147813328Y-126104333D01*
X147975289Y-125984939D01*
X148172408Y-125895903D01*
X148411901Y-125838831D01*
X148702860Y-125818325D01*
X151019992Y-125818325D01*
X151019992Y-129820000D01*
G37*
G36*
X178397356Y-131830000D02*
G01*
X177937629Y-131830000D01*
X177853094Y-131823602D01*
X177753165Y-131802705D01*
X177705565Y-131785525D01*
X177659272Y-131759337D01*
X177613825Y-131723204D01*
X177574131Y-131680739D01*
X177540357Y-131631634D01*
X177512403Y-131575132D01*
X177493576Y-131514861D01*
X177480682Y-131433655D01*
X177476120Y-131332843D01*
X177786626Y-131332843D01*
X177789915Y-131413835D01*
X177798297Y-131469735D01*
X177809890Y-131506683D01*
X177828195Y-131540119D01*
X177849556Y-131564675D01*
X177874065Y-131581849D01*
X177902601Y-131592523D01*
X177946774Y-131600277D01*
X178012062Y-131603342D01*
X178087900Y-131603342D01*
X178087900Y-131056238D01*
X178010719Y-131056238D01*
X177949885Y-131060661D01*
X177902670Y-131072664D01*
X177866288Y-131090925D01*
X177838589Y-131114979D01*
X177818521Y-131145126D01*
X177802222Y-131188621D01*
X177790931Y-131249561D01*
X177786626Y-131332843D01*
X177476120Y-131332843D01*
X177475827Y-131326371D01*
X177482097Y-131225846D01*
X177500435Y-131132625D01*
X177520491Y-131073393D01*
X177546910Y-131020144D01*
X177579692Y-130972219D01*
X177619171Y-130929989D01*
X177665036Y-130894842D01*
X177717994Y-130866461D01*
X177775022Y-130847105D01*
X177847167Y-130834286D01*
X177937629Y-130829581D01*
X178397356Y-130829581D01*
X178397356Y-131830000D01*
G37*
G36*
X177034219Y-131092238D02*
G01*
X177101831Y-131105709D01*
X177160797Y-131127110D01*
X177212343Y-131156079D01*
X177257413Y-131192709D01*
X177304568Y-131248594D01*
X177338284Y-131312009D01*
X177359085Y-131384430D01*
X177366345Y-131467909D01*
X177359992Y-131546076D01*
X177341717Y-131614870D01*
X177312062Y-131675943D01*
X177271721Y-131730681D01*
X177226209Y-131773248D01*
X177175103Y-131805026D01*
X177118400Y-131826171D01*
X177044182Y-131840358D01*
X176948263Y-131845631D01*
X176837817Y-131839275D01*
X176754827Y-131822382D01*
X176693517Y-131797515D01*
X176639121Y-131760097D01*
X176588638Y-131707954D01*
X176541843Y-131638513D01*
X176815761Y-131615066D01*
X176842381Y-131644398D01*
X176864243Y-131660983D01*
X176902340Y-131676410D01*
X176942157Y-131681500D01*
X176983219Y-131676053D01*
X177017752Y-131660312D01*
X177047364Y-131633811D01*
X177063062Y-131610083D01*
X177075407Y-131577317D01*
X177083573Y-131533000D01*
X176526150Y-131533000D01*
X176526150Y-131501737D01*
X176532066Y-131407449D01*
X176533630Y-131400132D01*
X176808922Y-131400132D01*
X177082902Y-131400132D01*
X177070481Y-131341097D01*
X177050784Y-131303595D01*
X177021225Y-131274597D01*
X176986513Y-131257527D01*
X176944904Y-131251632D01*
X176908042Y-131255709D01*
X176877664Y-131267258D01*
X176852336Y-131286071D01*
X176833294Y-131311402D01*
X176818449Y-131348203D01*
X176808922Y-131400132D01*
X176533630Y-131400132D01*
X176548334Y-131331351D01*
X176573289Y-131270195D01*
X176609571Y-131215477D01*
X176655027Y-131170497D01*
X176710614Y-131134396D01*
X176772596Y-131109888D01*
X176853086Y-131093550D01*
X176956506Y-131087501D01*
X177034219Y-131092238D01*
G37*
G36*
X176447687Y-131630697D02*
G01*
X176171754Y-131603342D01*
X176150244Y-131646210D01*
X176123943Y-131672463D01*
X176089759Y-131687591D01*
X176041939Y-131693224D01*
X175990200Y-131686702D01*
X175955232Y-131669471D01*
X175937092Y-131649229D01*
X175931297Y-131625324D01*
X175934651Y-131607216D01*
X175944656Y-131592079D01*
X175962682Y-131579101D01*
X175994539Y-131568502D01*
X176082239Y-131550586D01*
X176215665Y-131523811D01*
X176283434Y-131503935D01*
X176318789Y-131486420D01*
X176350298Y-131462363D01*
X176378383Y-131431151D01*
X176399824Y-131395400D01*
X176412621Y-131356772D01*
X176416973Y-131314342D01*
X176412189Y-131267984D01*
X176398308Y-131227170D01*
X176375330Y-131190694D01*
X176344811Y-131159624D01*
X176306941Y-131133778D01*
X176260536Y-131113147D01*
X176211049Y-131099836D01*
X176146749Y-131090843D01*
X176064470Y-131087501D01*
X175943198Y-131093429D01*
X175872861Y-131107468D01*
X175815520Y-131133311D01*
X175769730Y-131169384D01*
X175733052Y-131216827D01*
X175701037Y-131282896D01*
X175964758Y-131306343D01*
X175978868Y-131276622D01*
X175998891Y-131257067D01*
X176034223Y-131241504D01*
X176078148Y-131236001D01*
X176121375Y-131240802D01*
X176146841Y-131252670D01*
X176163148Y-131271435D01*
X176168334Y-131293093D01*
X176161764Y-131315958D01*
X176140979Y-131333148D01*
X176105506Y-131344378D01*
X176022155Y-131357634D01*
X175892764Y-131378173D01*
X175815892Y-131401170D01*
X175773249Y-131423098D01*
X175739138Y-131449610D01*
X175712394Y-131480793D01*
X175692352Y-131516631D01*
X175680485Y-131554282D01*
X175676490Y-131594488D01*
X175680566Y-131635167D01*
X175692968Y-131675545D01*
X175714409Y-131716304D01*
X175743280Y-131751860D01*
X175782480Y-131783286D01*
X175833966Y-131810582D01*
X175889581Y-131828787D01*
X175962372Y-131841062D01*
X176056288Y-131845631D01*
X176160340Y-131841083D01*
X176239005Y-131829008D01*
X176297262Y-131811402D01*
X176339426Y-131789699D01*
X176377829Y-131758774D01*
X176408343Y-131722439D01*
X176431602Y-131680084D01*
X176447687Y-131630697D01*
G37*
G36*
X175533425Y-130829581D02*
G01*
X175255416Y-130829581D01*
X175255416Y-131017159D01*
X175533425Y-131017159D01*
X175533425Y-130829581D01*
G37*
G36*
X175533425Y-131103133D02*
G01*
X175255416Y-131103133D01*
X175255416Y-131830000D01*
X175533425Y-131830000D01*
X175533425Y-131103133D01*
G37*
G36*
X174880166Y-131093366D02*
G01*
X174936523Y-131110205D01*
X174986041Y-131137614D01*
X175029857Y-131176161D01*
X175063941Y-131222436D01*
X175089458Y-131279252D01*
X175105881Y-131348816D01*
X175111801Y-131433899D01*
X175107314Y-131508482D01*
X175094689Y-131571931D01*
X175074859Y-131625935D01*
X175048298Y-131671913D01*
X175008940Y-131718884D01*
X174966368Y-131753998D01*
X174920164Y-131778674D01*
X174869513Y-131793611D01*
X174813275Y-131798736D01*
X174764491Y-131794938D01*
X174718471Y-131783699D01*
X174674606Y-131764970D01*
X174635284Y-131738209D01*
X174592663Y-131695483D01*
X174592663Y-131806125D01*
X174596764Y-131859217D01*
X174607277Y-131895229D01*
X174622399Y-131918843D01*
X174644272Y-131936077D01*
X174673425Y-131947095D01*
X174712158Y-131951144D01*
X174755740Y-131945472D01*
X174789339Y-131929651D01*
X174806891Y-131910647D01*
X174820785Y-131876894D01*
X175090674Y-131845631D01*
X175092017Y-131882939D01*
X175086671Y-131936968D01*
X175071303Y-131983678D01*
X175046142Y-132024572D01*
X175010379Y-132060626D01*
X174968900Y-132086119D01*
X174908965Y-132106973D01*
X174824935Y-132121468D01*
X174710143Y-132126999D01*
X174617358Y-132122448D01*
X174540395Y-132109841D01*
X174471138Y-132086623D01*
X174418151Y-132054275D01*
X174375278Y-132010654D01*
X174340970Y-131953831D01*
X174319173Y-131890167D01*
X174311905Y-131823222D01*
X174312577Y-131790982D01*
X174312577Y-131453682D01*
X174590587Y-131453682D01*
X174595118Y-131505313D01*
X174607273Y-131543696D01*
X174625758Y-131571957D01*
X174651314Y-131593891D01*
X174679983Y-131606765D01*
X174712891Y-131611158D01*
X174747621Y-131606784D01*
X174776531Y-131594241D01*
X174801002Y-131573361D01*
X174818491Y-131546076D01*
X174830102Y-131508399D01*
X174834463Y-131457041D01*
X174830128Y-131397997D01*
X174818919Y-131356959D01*
X174802711Y-131329241D01*
X174779256Y-131307906D01*
X174751374Y-131295155D01*
X174717654Y-131290711D01*
X174683984Y-131295360D01*
X174654301Y-131309078D01*
X174627467Y-131332660D01*
X174607908Y-131362710D01*
X174595244Y-131402142D01*
X174590587Y-131453682D01*
X174312577Y-131453682D01*
X174312577Y-131103133D01*
X174572818Y-131103133D01*
X174572818Y-131211821D01*
X174607157Y-131169830D01*
X174641362Y-131138551D01*
X174675644Y-131116383D01*
X174713380Y-131101005D01*
X174759380Y-131091080D01*
X174815351Y-131087501D01*
X174880166Y-131093366D01*
G37*
G36*
X174144660Y-131103133D02*
G01*
X173885763Y-131103133D01*
X173885763Y-131222323D01*
X173844626Y-131176295D01*
X173805584Y-131142373D01*
X173768282Y-131118642D01*
X173727500Y-131101879D01*
X173679671Y-131091265D01*
X173623446Y-131087501D01*
X173566337Y-131092230D01*
X173518214Y-131105591D01*
X173477429Y-131126901D01*
X173442767Y-131156256D01*
X173416013Y-131192126D01*
X173395666Y-131237855D01*
X173382357Y-131295709D01*
X173377493Y-131368503D01*
X173377493Y-131830000D01*
X173656907Y-131830000D01*
X173656907Y-131431273D01*
X173660370Y-131386212D01*
X173669291Y-131355274D01*
X173682186Y-131334675D01*
X173700763Y-131319265D01*
X173723988Y-131309745D01*
X173753261Y-131306343D01*
X173785169Y-131310685D01*
X173812086Y-131323269D01*
X173835266Y-131344567D01*
X173850980Y-131372231D01*
X173862205Y-131415893D01*
X173866651Y-131481831D01*
X173866651Y-131830000D01*
X174144660Y-131830000D01*
X174144660Y-131103133D01*
G37*
G36*
X172914330Y-131092238D02*
G01*
X172981943Y-131105709D01*
X173040909Y-131127110D01*
X173092455Y-131156079D01*
X173137525Y-131192709D01*
X173184680Y-131248594D01*
X173218396Y-131312009D01*
X173239197Y-131384430D01*
X173246457Y-131467909D01*
X173240104Y-131546076D01*
X173221828Y-131614870D01*
X173192174Y-131675943D01*
X173151833Y-131730681D01*
X173106321Y-131773248D01*
X173055215Y-131805026D01*
X172998511Y-131826171D01*
X172924294Y-131840358D01*
X172828374Y-131845631D01*
X172717929Y-131839275D01*
X172634939Y-131822382D01*
X172573629Y-131797515D01*
X172519233Y-131760097D01*
X172468749Y-131707954D01*
X172421954Y-131638513D01*
X172695873Y-131615066D01*
X172722493Y-131644398D01*
X172744355Y-131660983D01*
X172782452Y-131676410D01*
X172822268Y-131681500D01*
X172863331Y-131676053D01*
X172897864Y-131660312D01*
X172927476Y-131633811D01*
X172943173Y-131610083D01*
X172955518Y-131577317D01*
X172963685Y-131533000D01*
X172406262Y-131533000D01*
X172406262Y-131501737D01*
X172412177Y-131407449D01*
X172413741Y-131400132D01*
X172689034Y-131400132D01*
X172963013Y-131400132D01*
X172950593Y-131341097D01*
X172930895Y-131303595D01*
X172901337Y-131274597D01*
X172866625Y-131257527D01*
X172825016Y-131251632D01*
X172788154Y-131255709D01*
X172757775Y-131267258D01*
X172732448Y-131286071D01*
X172713405Y-131311402D01*
X172698560Y-131348203D01*
X172689034Y-131400132D01*
X172413741Y-131400132D01*
X172428445Y-131331351D01*
X172453401Y-131270195D01*
X172489683Y-131215477D01*
X172535139Y-131170497D01*
X172590726Y-131134396D01*
X172652708Y-131109888D01*
X172733198Y-131093550D01*
X172836618Y-131087501D01*
X172914330Y-131092238D01*
G37*
G36*
X171795655Y-131174696D02*
G01*
X171839870Y-131136373D01*
X171889566Y-131109300D01*
X171944585Y-131093121D01*
X172007413Y-131087501D01*
X172072166Y-131093689D01*
X172129416Y-131111614D01*
X172180696Y-131141124D01*
X172227049Y-131183122D01*
X172262986Y-131232917D01*
X172289900Y-131293867D01*
X172307213Y-131368285D01*
X172313449Y-131459056D01*
X172308200Y-131539319D01*
X172293090Y-131610919D01*
X172268726Y-131675121D01*
X172235231Y-131732974D01*
X172201044Y-131773629D01*
X172162110Y-131804659D01*
X172117839Y-131826976D01*
X172067203Y-131840798D01*
X172008818Y-131845631D01*
X171960421Y-131842046D01*
X171916014Y-131831572D01*
X171874911Y-131814368D01*
X171831002Y-131782727D01*
X171775199Y-131722533D01*
X171775199Y-131830000D01*
X171514897Y-131830000D01*
X171514897Y-131464429D01*
X171793640Y-131464429D01*
X171798434Y-131526711D01*
X171810921Y-131570547D01*
X171829177Y-131600655D01*
X171855138Y-131624079D01*
X171884331Y-131637759D01*
X171917959Y-131642421D01*
X171949293Y-131637864D01*
X171976825Y-131624380D01*
X172001673Y-131601022D01*
X172019118Y-131571340D01*
X172030941Y-131529215D01*
X172035440Y-131470596D01*
X172030929Y-131407524D01*
X172019320Y-131364063D01*
X172002650Y-131335041D01*
X171978540Y-131312228D01*
X171951813Y-131299066D01*
X171921379Y-131294619D01*
X171886418Y-131299359D01*
X171856330Y-131313200D01*
X171829849Y-131336751D01*
X171810903Y-131366964D01*
X171798345Y-131408367D01*
X171793640Y-131464429D01*
X171514897Y-131464429D01*
X171514897Y-130829581D01*
X171795655Y-130829581D01*
X171795655Y-131174696D01*
G37*
G36*
X170878278Y-131830000D02*
G01*
X170617977Y-131830000D01*
X170617977Y-131722533D01*
X170562696Y-131782224D01*
X170518264Y-131814368D01*
X170476739Y-131831613D01*
X170432315Y-131842067D01*
X170384358Y-131845631D01*
X170328718Y-131840589D01*
X170277238Y-131825731D01*
X170228959Y-131800935D01*
X170186679Y-131767043D01*
X170150166Y-131722545D01*
X170119294Y-131665685D01*
X170097799Y-131604156D01*
X170084360Y-131534785D01*
X170079986Y-131461681D01*
X170357736Y-131461681D01*
X170362389Y-131526523D01*
X170374363Y-131571196D01*
X170391564Y-131601022D01*
X170416374Y-131624378D01*
X170443886Y-131637863D01*
X170475217Y-131642421D01*
X170509254Y-131637705D01*
X170538553Y-131623909D01*
X170564365Y-131600350D01*
X170582456Y-131570061D01*
X170594806Y-131526275D01*
X170599536Y-131464429D01*
X170594873Y-131408334D01*
X170582433Y-131366933D01*
X170563694Y-131336751D01*
X170537366Y-131313289D01*
X170506964Y-131299405D01*
X170471126Y-131294619D01*
X170441561Y-131299016D01*
X170415158Y-131312130D01*
X170390892Y-131335041D01*
X170373741Y-131363956D01*
X170362143Y-131404871D01*
X170357736Y-131461681D01*
X170079986Y-131461681D01*
X170079665Y-131456308D01*
X170085902Y-131366703D01*
X170103245Y-131293029D01*
X170130265Y-131232480D01*
X170166433Y-131182817D01*
X170212949Y-131140917D01*
X170264239Y-131111502D01*
X170321324Y-131093654D01*
X170385702Y-131087501D01*
X170447943Y-131093106D01*
X170502877Y-131109300D01*
X170552695Y-131136343D01*
X170597460Y-131174696D01*
X170597460Y-130829581D01*
X170878278Y-130829581D01*
X170878278Y-131830000D01*
G37*
G36*
X170027214Y-131103133D02*
G01*
X169733451Y-131103133D01*
X169583852Y-131587039D01*
X169445184Y-131103133D01*
X169171265Y-131103133D01*
X169458861Y-131880985D01*
X169496152Y-131969041D01*
X169529546Y-132026378D01*
X169559306Y-132061053D01*
X169596917Y-132088076D01*
X169644617Y-132108645D01*
X169704682Y-132122092D01*
X169779918Y-132126999D01*
X169848151Y-132123679D01*
X169965726Y-132110940D01*
X169987586Y-131919148D01*
X169925292Y-131934160D01*
X169853680Y-131939420D01*
X169807978Y-131933106D01*
X169774118Y-131915668D01*
X169747806Y-131885431D01*
X169722521Y-131830671D01*
X170027214Y-131103133D01*
G37*
G36*
X168610728Y-130829581D02*
G01*
X168203575Y-130829581D01*
X168046466Y-131437868D01*
X167890028Y-130829581D01*
X167484280Y-130829581D01*
X167484280Y-131830000D01*
X167737010Y-131830000D01*
X167737010Y-131066252D01*
X167933076Y-131830000D01*
X168161932Y-131830000D01*
X168357265Y-131066252D01*
X168357265Y-131830000D01*
X168610728Y-131830000D01*
X168610728Y-130829581D01*
G37*
G36*
X167001271Y-131092282D02*
G01*
X167068727Y-131105936D01*
X167128130Y-131127737D01*
X167180610Y-131157401D01*
X167227031Y-131195090D01*
X167275910Y-131252343D01*
X167310531Y-131316053D01*
X167331689Y-131387533D01*
X167339016Y-131468642D01*
X167333471Y-131538708D01*
X167317416Y-131601441D01*
X167291220Y-131658115D01*
X167254574Y-131709711D01*
X167206515Y-131756849D01*
X167150561Y-131794503D01*
X167085894Y-131822136D01*
X167010928Y-131839506D01*
X166923681Y-131845631D01*
X166844267Y-131840812D01*
X166775229Y-131827115D01*
X166715075Y-131805367D01*
X166662546Y-131775948D01*
X166616668Y-131738775D01*
X166568341Y-131681888D01*
X166534009Y-131618210D01*
X166512965Y-131546382D01*
X166505660Y-131464490D01*
X166505743Y-131463452D01*
X166785013Y-131463452D01*
X166790190Y-131530786D01*
X166803729Y-131578610D01*
X166823603Y-131611830D01*
X166851952Y-131637661D01*
X166884388Y-131652844D01*
X166922338Y-131658053D01*
X166959785Y-131652821D01*
X166992246Y-131637468D01*
X167021073Y-131611158D01*
X167041488Y-131577496D01*
X167055170Y-131530578D01*
X167060335Y-131466200D01*
X167055161Y-131402830D01*
X167041387Y-131356199D01*
X167020707Y-131322341D01*
X166991633Y-131295882D01*
X166958622Y-131280381D01*
X166920262Y-131275080D01*
X166884139Y-131280230D01*
X166852467Y-131295436D01*
X166823969Y-131321669D01*
X166803642Y-131355037D01*
X166790101Y-131400995D01*
X166785013Y-131463452D01*
X166505743Y-131463452D01*
X166511545Y-131391218D01*
X166528563Y-131325891D01*
X166556306Y-131267117D01*
X166595114Y-131213836D01*
X166641855Y-131169945D01*
X166696702Y-131135266D01*
X166760890Y-131109561D01*
X166836109Y-131093275D01*
X166924414Y-131087501D01*
X167001271Y-131092282D01*
G37*
G36*
X166369128Y-131103133D02*
G01*
X166108887Y-131103133D01*
X166108887Y-131221896D01*
X166081024Y-131172096D01*
X166055248Y-131138128D01*
X166031340Y-131116383D01*
X166003388Y-131100671D01*
X165970839Y-131090926D01*
X165932605Y-131087501D01*
X165892390Y-131091281D01*
X165847856Y-131103310D01*
X165798027Y-131124993D01*
X165884123Y-131323012D01*
X165931318Y-131306771D01*
X165961975Y-131302435D01*
X165995997Y-131307568D01*
X166023695Y-131322379D01*
X166046666Y-131347681D01*
X166067760Y-131393163D01*
X166083398Y-131468520D01*
X166089714Y-131586062D01*
X166089714Y-131830000D01*
X166369128Y-131830000D01*
X166369128Y-131103133D01*
G37*
G36*
X165740264Y-130829581D02*
G01*
X165462254Y-130829581D01*
X165462254Y-131017159D01*
X165740264Y-131017159D01*
X165740264Y-130829581D01*
G37*
G36*
X165740264Y-131103133D02*
G01*
X165462254Y-131103133D01*
X165462254Y-131830000D01*
X165740264Y-131830000D01*
X165740264Y-131103133D01*
G37*
G36*
X164949100Y-130829581D02*
G01*
X164949100Y-131103133D01*
X164796082Y-131103133D01*
X164796082Y-131306343D01*
X164949100Y-131306343D01*
X164949100Y-131565118D01*
X164946284Y-131607716D01*
X164940246Y-131626912D01*
X164922219Y-131644024D01*
X164892436Y-131650237D01*
X164859053Y-131646488D01*
X164806340Y-131632407D01*
X164785824Y-131823222D01*
X164887590Y-131840263D01*
X164978470Y-131845631D01*
X165047931Y-131841972D01*
X165097363Y-131832496D01*
X165131488Y-131819009D01*
X165161264Y-131798280D01*
X165185363Y-131771548D01*
X165204212Y-131737981D01*
X165215961Y-131700533D01*
X165224451Y-131643937D01*
X165227781Y-131562004D01*
X165227781Y-131306343D01*
X165330241Y-131306343D01*
X165330241Y-131103133D01*
X165227781Y-131103133D01*
X165227781Y-130971120D01*
X164949100Y-130829581D01*
G37*
G36*
X164694599Y-131103133D02*
G01*
X164021710Y-131103133D01*
X164021710Y-131263722D01*
X164387830Y-131642421D01*
X163999179Y-131642421D01*
X163999179Y-131830000D01*
X164721893Y-131830000D01*
X164721893Y-131651885D01*
X164374885Y-131290711D01*
X164694599Y-131290711D01*
X164694599Y-131103133D01*
G37*
G36*
X163402371Y-131830000D02*
G01*
X163091572Y-131830000D01*
X163091572Y-131458750D01*
X162922129Y-131458750D01*
X162827304Y-131452423D01*
X162751563Y-131435070D01*
X162691352Y-131408479D01*
X162643814Y-131373449D01*
X162604829Y-131328030D01*
X162576564Y-131274585D01*
X162558856Y-131211519D01*
X162553305Y-131145204D01*
X162853863Y-131145204D01*
X162857963Y-131175786D01*
X162869883Y-131201865D01*
X162890072Y-131224583D01*
X162916313Y-131240256D01*
X162956462Y-131251242D01*
X163015735Y-131255540D01*
X163091572Y-131255540D01*
X163091572Y-131032791D01*
X163003462Y-131032791D01*
X162946231Y-131037383D01*
X162908777Y-131048994D01*
X162885309Y-131065519D01*
X162867849Y-131088874D01*
X162857439Y-131115126D01*
X162853863Y-131145204D01*
X162553305Y-131145204D01*
X162552589Y-131136655D01*
X162558446Y-131063410D01*
X162574873Y-131002549D01*
X162600845Y-130951797D01*
X162636304Y-130909448D01*
X162680066Y-130876448D01*
X162734877Y-130851573D01*
X162803170Y-130835438D01*
X162887996Y-130829581D01*
X163402371Y-130829581D01*
X163402371Y-131830000D01*
G37*
G36*
X162406532Y-131103133D02*
G01*
X162146291Y-131103133D01*
X162146291Y-131221896D01*
X162118428Y-131172096D01*
X162092652Y-131138128D01*
X162068744Y-131116383D01*
X162040792Y-131100671D01*
X162008243Y-131090926D01*
X161970009Y-131087501D01*
X161929794Y-131091281D01*
X161885261Y-131103310D01*
X161835431Y-131124993D01*
X161921527Y-131323012D01*
X161968722Y-131306771D01*
X161999379Y-131302435D01*
X162033401Y-131307568D01*
X162061099Y-131322379D01*
X162084070Y-131347681D01*
X162105164Y-131393163D01*
X162120802Y-131468520D01*
X162127118Y-131586062D01*
X162127118Y-131830000D01*
X162406532Y-131830000D01*
X162406532Y-131103133D01*
G37*
G36*
X161468133Y-131092238D02*
G01*
X161535746Y-131105709D01*
X161594712Y-131127110D01*
X161646258Y-131156079D01*
X161691328Y-131192709D01*
X161738483Y-131248594D01*
X161772199Y-131312009D01*
X161793000Y-131384430D01*
X161800260Y-131467909D01*
X161793907Y-131546076D01*
X161775632Y-131614870D01*
X161745977Y-131675943D01*
X161705636Y-131730681D01*
X161660124Y-131773248D01*
X161609018Y-131805026D01*
X161552314Y-131826171D01*
X161478097Y-131840358D01*
X161382178Y-131845631D01*
X161271732Y-131839275D01*
X161188742Y-131822382D01*
X161127432Y-131797515D01*
X161073036Y-131760097D01*
X161022553Y-131707954D01*
X160975758Y-131638513D01*
X161249676Y-131615066D01*
X161276296Y-131644398D01*
X161298158Y-131660983D01*
X161336255Y-131676410D01*
X161376072Y-131681500D01*
X161417134Y-131676053D01*
X161451667Y-131660312D01*
X161481279Y-131633811D01*
X161496977Y-131610083D01*
X161509321Y-131577317D01*
X161517488Y-131533000D01*
X160960065Y-131533000D01*
X160960065Y-131501737D01*
X160965981Y-131407449D01*
X160967545Y-131400132D01*
X161242837Y-131400132D01*
X161516816Y-131400132D01*
X161504396Y-131341097D01*
X161484699Y-131303595D01*
X161455140Y-131274597D01*
X161420428Y-131257527D01*
X161378819Y-131251632D01*
X161341957Y-131255709D01*
X161311578Y-131267258D01*
X161286251Y-131286071D01*
X161267209Y-131311402D01*
X161252364Y-131348203D01*
X161242837Y-131400132D01*
X160967545Y-131400132D01*
X160982248Y-131331351D01*
X161007204Y-131270195D01*
X161043486Y-131215477D01*
X161088942Y-131170497D01*
X161144529Y-131134396D01*
X161206511Y-131109888D01*
X161287001Y-131093550D01*
X161390421Y-131087501D01*
X161468133Y-131092238D01*
G37*
G36*
X160832448Y-131103133D02*
G01*
X160573551Y-131103133D01*
X160573551Y-131222323D01*
X160532413Y-131176295D01*
X160493372Y-131142373D01*
X160456070Y-131118642D01*
X160415287Y-131101879D01*
X160367459Y-131091265D01*
X160311234Y-131087501D01*
X160254125Y-131092230D01*
X160206002Y-131105591D01*
X160165216Y-131126901D01*
X160130555Y-131156256D01*
X160103801Y-131192126D01*
X160083453Y-131237855D01*
X160070145Y-131295709D01*
X160065281Y-131368503D01*
X160065281Y-131830000D01*
X160344695Y-131830000D01*
X160344695Y-131431273D01*
X160348158Y-131386212D01*
X160357079Y-131355274D01*
X160369974Y-131334675D01*
X160388551Y-131319265D01*
X160411775Y-131309745D01*
X160441049Y-131306343D01*
X160472957Y-131310685D01*
X160499874Y-131323269D01*
X160523053Y-131344567D01*
X160538768Y-131372231D01*
X160549992Y-131415893D01*
X160554439Y-131481831D01*
X160554439Y-131830000D01*
X160832448Y-131830000D01*
X160832448Y-131103133D01*
G37*
G36*
X159899440Y-131103133D02*
G01*
X159640543Y-131103133D01*
X159640543Y-131222323D01*
X159599406Y-131176295D01*
X159560364Y-131142373D01*
X159523062Y-131118642D01*
X159482280Y-131101879D01*
X159434451Y-131091265D01*
X159378226Y-131087501D01*
X159321117Y-131092230D01*
X159272994Y-131105591D01*
X159232209Y-131126901D01*
X159197547Y-131156256D01*
X159170793Y-131192126D01*
X159150446Y-131237855D01*
X159137137Y-131295709D01*
X159132274Y-131368503D01*
X159132274Y-131830000D01*
X159411687Y-131830000D01*
X159411687Y-131431273D01*
X159415150Y-131386212D01*
X159424072Y-131355274D01*
X159436967Y-131334675D01*
X159455543Y-131319265D01*
X159478768Y-131309745D01*
X159508041Y-131306343D01*
X159539949Y-131310685D01*
X159566866Y-131323269D01*
X159590046Y-131344567D01*
X159605760Y-131372231D01*
X159616985Y-131415893D01*
X159621431Y-131481831D01*
X159621431Y-131830000D01*
X159899440Y-131830000D01*
X159899440Y-131103133D01*
G37*
G36*
X158669110Y-131092238D02*
G01*
X158736723Y-131105709D01*
X158795689Y-131127110D01*
X158847235Y-131156079D01*
X158892305Y-131192709D01*
X158939460Y-131248594D01*
X158973176Y-131312009D01*
X158993977Y-131384430D01*
X159001237Y-131467909D01*
X158994884Y-131546076D01*
X158976609Y-131614870D01*
X158946954Y-131675943D01*
X158906613Y-131730681D01*
X158861101Y-131773248D01*
X158809995Y-131805026D01*
X158753291Y-131826171D01*
X158679074Y-131840358D01*
X158583155Y-131845631D01*
X158472709Y-131839275D01*
X158389719Y-131822382D01*
X158328409Y-131797515D01*
X158274013Y-131760097D01*
X158223530Y-131707954D01*
X158176734Y-131638513D01*
X158450653Y-131615066D01*
X158477273Y-131644398D01*
X158499135Y-131660983D01*
X158537232Y-131676410D01*
X158577049Y-131681500D01*
X158618111Y-131676053D01*
X158652644Y-131660312D01*
X158682256Y-131633811D01*
X158697954Y-131610083D01*
X158710298Y-131577317D01*
X158718465Y-131533000D01*
X158161042Y-131533000D01*
X158161042Y-131501737D01*
X158166958Y-131407449D01*
X158168522Y-131400132D01*
X158443814Y-131400132D01*
X158717793Y-131400132D01*
X158705373Y-131341097D01*
X158685676Y-131303595D01*
X158656117Y-131274597D01*
X158621405Y-131257527D01*
X158579796Y-131251632D01*
X158542934Y-131255709D01*
X158512555Y-131267258D01*
X158487228Y-131286071D01*
X158468186Y-131311402D01*
X158453341Y-131348203D01*
X158443814Y-131400132D01*
X158168522Y-131400132D01*
X158183225Y-131331351D01*
X158208181Y-131270195D01*
X158244463Y-131215477D01*
X158289919Y-131170497D01*
X158345506Y-131134396D01*
X158407488Y-131109888D01*
X158487978Y-131093550D01*
X158591398Y-131087501D01*
X158669110Y-131092238D01*
G37*
G36*
X158030677Y-131103133D02*
G01*
X157770437Y-131103133D01*
X157770437Y-131221896D01*
X157742573Y-131172096D01*
X157716797Y-131138128D01*
X157692889Y-131116383D01*
X157664938Y-131100671D01*
X157632388Y-131090926D01*
X157594154Y-131087501D01*
X157553939Y-131091281D01*
X157509406Y-131103310D01*
X157459576Y-131124993D01*
X157545672Y-131323012D01*
X157592867Y-131306771D01*
X157623524Y-131302435D01*
X157657546Y-131307568D01*
X157685244Y-131322379D01*
X157708216Y-131347681D01*
X157729309Y-131393163D01*
X157744948Y-131468520D01*
X157751263Y-131586062D01*
X157751263Y-131830000D01*
X158030677Y-131830000D01*
X158030677Y-131103133D01*
G37*
D11*
G36*
X153227421Y-93354266D02*
G01*
X153415000Y-93354266D01*
X153415000Y-93596799D01*
X153227421Y-93596799D01*
X153227421Y-93722462D01*
X153012487Y-93722462D01*
X153012487Y-93596799D01*
X152398949Y-93596799D01*
X152398949Y-93354266D01*
X152695460Y-93354266D01*
X153012487Y-93354266D01*
X153012487Y-93086515D01*
X152695460Y-93354266D01*
X152398949Y-93354266D01*
X152999359Y-92847401D01*
X153227421Y-92847401D01*
X153227421Y-93354266D01*
G37*
G36*
X153137540Y-93836401D02*
G01*
X153137540Y-94133584D01*
X153415000Y-94133584D01*
X153415000Y-93836401D01*
X153137540Y-93836401D01*
G37*
G36*
X152414581Y-94279885D02*
G01*
X152414581Y-95092115D01*
X152602037Y-95092115D01*
X152668378Y-95024571D01*
X152737268Y-94965782D01*
X152808850Y-94915222D01*
X152901232Y-94862441D01*
X153001351Y-94817095D01*
X153109879Y-94779301D01*
X153196612Y-94756740D01*
X153297720Y-94738716D01*
X153415000Y-94725995D01*
X153415000Y-94448596D01*
X153252189Y-94476350D01*
X153116396Y-94511141D01*
X153004061Y-94551728D01*
X152896845Y-94604432D01*
X152778968Y-94677611D01*
X152649054Y-94774477D01*
X152649054Y-94279885D01*
X152414581Y-94279885D01*
G37*
G36*
X152414581Y-95700768D02*
G01*
X152414581Y-95984945D01*
X152929506Y-95984945D01*
X152688133Y-96192612D01*
X152688133Y-96534857D01*
X152942695Y-96274617D01*
X153415000Y-96549878D01*
X153415000Y-96236332D01*
X153123801Y-96089481D01*
X153226078Y-95984945D01*
X153415000Y-95984945D01*
X153415000Y-95700768D01*
X152414581Y-95700768D01*
G37*
G36*
X153196158Y-97237117D02*
G01*
X153164281Y-97202079D01*
X153117949Y-97166236D01*
X153053642Y-97129528D01*
X152985874Y-97101563D01*
X152919823Y-97085326D01*
X152854706Y-97080007D01*
X152770756Y-97085858D01*
X152696891Y-97102620D01*
X152631548Y-97129564D01*
X152573463Y-97166587D01*
X152521742Y-97214219D01*
X152479628Y-97269166D01*
X152445892Y-97333279D01*
X152420670Y-97407967D01*
X152404633Y-97494990D01*
X152398949Y-97596398D01*
X152404526Y-97702078D01*
X152420156Y-97791577D01*
X152444516Y-97867230D01*
X152476771Y-97931067D01*
X152516613Y-97984744D01*
X152566068Y-98031009D01*
X152623258Y-98067359D01*
X152689320Y-98094133D01*
X152765828Y-98110994D01*
X152854706Y-98116940D01*
X152919823Y-98111622D01*
X152985874Y-98095385D01*
X153053642Y-98067420D01*
X153117949Y-98030712D01*
X153164281Y-97994869D01*
X153196158Y-97959831D01*
X153196158Y-98108087D01*
X153415000Y-98108087D01*
X153415000Y-97656543D01*
X153196158Y-97656543D01*
X153150263Y-97710172D01*
X153096536Y-97751624D01*
X153033920Y-97781839D01*
X152960711Y-97800792D01*
X152874673Y-97807485D01*
X152802923Y-97802150D01*
X152747514Y-97787690D01*
X152705053Y-97765700D01*
X152672953Y-97736703D01*
X152649663Y-97700078D01*
X152634863Y-97654150D01*
X152629515Y-97596398D01*
X152634028Y-97546336D01*
X152646710Y-97504979D01*
X152666919Y-97470608D01*
X152694911Y-97442036D01*
X152741282Y-97413993D01*
X152800094Y-97396003D01*
X152874673Y-97389463D01*
X152954283Y-97395833D01*
X153024860Y-97414207D01*
X153087977Y-97444081D01*
X153144830Y-97485775D01*
X153196158Y-97540405D01*
X153415000Y-97540405D01*
X153415000Y-97088190D01*
X153196158Y-97088190D01*
X153196158Y-97237117D01*
G37*
G36*
X179065000Y-94156359D02*
G01*
X179065000Y-93321598D01*
X178984907Y-93337506D01*
X178907849Y-93366303D01*
X178832969Y-93408671D01*
X178765125Y-93462985D01*
X178680877Y-93550592D01*
X178576758Y-93681612D01*
X178489129Y-93790996D01*
X178439494Y-93838050D01*
X178391951Y-93864347D01*
X178350528Y-93872183D01*
X178321592Y-93868411D01*
X178295967Y-93857306D01*
X178272737Y-93838355D01*
X178254938Y-93814138D01*
X178244177Y-93786152D01*
X178240436Y-93753297D01*
X178244360Y-93719192D01*
X178255586Y-93690581D01*
X178274080Y-93666225D01*
X178298879Y-93647940D01*
X178336940Y-93632412D01*
X178392843Y-93620796D01*
X178370190Y-93342115D01*
X178292317Y-93357330D01*
X178231961Y-93377710D01*
X178185908Y-93402198D01*
X178145636Y-93434869D01*
X178111864Y-93475598D01*
X178084303Y-93525480D01*
X178065993Y-93579862D01*
X178053587Y-93651890D01*
X178048949Y-93745787D01*
X178053374Y-93844076D01*
X178065142Y-93918698D01*
X178082349Y-93974276D01*
X178108966Y-94025393D01*
X178143036Y-94067858D01*
X178184993Y-94102687D01*
X178232902Y-94128676D01*
X178284250Y-94144235D01*
X178340087Y-94149520D01*
X178399471Y-94143686D01*
X178457338Y-94126080D01*
X178514659Y-94095909D01*
X178566175Y-94055679D01*
X178626420Y-93992779D01*
X178696987Y-93900881D01*
X178777892Y-93788468D01*
X178838342Y-93721912D01*
X178838342Y-94156359D01*
X179065000Y-94156359D01*
G37*
G36*
X179065000Y-95089367D02*
G01*
X179065000Y-94254606D01*
X178984907Y-94270513D01*
X178907849Y-94299311D01*
X178832969Y-94341678D01*
X178765125Y-94395993D01*
X178680877Y-94483600D01*
X178576758Y-94614620D01*
X178489129Y-94724004D01*
X178439494Y-94771057D01*
X178391951Y-94797354D01*
X178350528Y-94805190D01*
X178321592Y-94801419D01*
X178295967Y-94790314D01*
X178272737Y-94771363D01*
X178254938Y-94747145D01*
X178244177Y-94719160D01*
X178240436Y-94686305D01*
X178244360Y-94652200D01*
X178255586Y-94623589D01*
X178274080Y-94599233D01*
X178298879Y-94580948D01*
X178336940Y-94565420D01*
X178392843Y-94553803D01*
X178370190Y-94275122D01*
X178292317Y-94290337D01*
X178231961Y-94310717D01*
X178185908Y-94335206D01*
X178145636Y-94367876D01*
X178111864Y-94408605D01*
X178084303Y-94458488D01*
X178065993Y-94512870D01*
X178053587Y-94584898D01*
X178048949Y-94678795D01*
X178053374Y-94777083D01*
X178065142Y-94851705D01*
X178082349Y-94907284D01*
X178108966Y-94958400D01*
X178143036Y-95000865D01*
X178184993Y-95035694D01*
X178232902Y-95061684D01*
X178284250Y-95077242D01*
X178340087Y-95082528D01*
X178399471Y-95076694D01*
X178457338Y-95059088D01*
X178514659Y-95028917D01*
X178566175Y-94988687D01*
X178626420Y-94925787D01*
X178696987Y-94833889D01*
X178777892Y-94721476D01*
X178838342Y-94654920D01*
X178838342Y-95089367D01*
X179065000Y-95089367D01*
G37*
G36*
X178673690Y-95213390D02*
G01*
X178772030Y-95228280D01*
X178835124Y-95244710D01*
X178884589Y-95263689D01*
X178922728Y-95284639D01*
X178970784Y-95321437D01*
X179009781Y-95363859D01*
X179040514Y-95412378D01*
X179061685Y-95465830D01*
X179075564Y-95532915D01*
X179080631Y-95616626D01*
X179074565Y-95709170D01*
X179057797Y-95784471D01*
X179031900Y-95845559D01*
X178997601Y-95894903D01*
X178954724Y-95934264D01*
X178905221Y-95964199D01*
X178843284Y-95989329D01*
X178766533Y-96008908D01*
X178672219Y-96021787D01*
X178557280Y-96026466D01*
X178437849Y-96019373D01*
X178324577Y-95998439D01*
X178268439Y-95981315D01*
X178222178Y-95960520D01*
X178180018Y-95933184D01*
X178138464Y-95895979D01*
X178103194Y-95850328D01*
X178073801Y-95790100D01*
X178060721Y-95746140D01*
X178052096Y-95691502D01*
X178048949Y-95624137D01*
X178049542Y-95614550D01*
X178232620Y-95614550D01*
X178236852Y-95646140D01*
X178249124Y-95672888D01*
X178269874Y-95696014D01*
X178300886Y-95715972D01*
X178349038Y-95732208D01*
X178432785Y-95744681D01*
X178567355Y-95749799D01*
X178693528Y-95745420D01*
X178766290Y-95735084D01*
X178807711Y-95722437D01*
X178838058Y-95707027D01*
X178859652Y-95689349D01*
X178881795Y-95655402D01*
X178889145Y-95615954D01*
X178884951Y-95586241D01*
X178872655Y-95560607D01*
X178851559Y-95537944D01*
X178819596Y-95517891D01*
X178770762Y-95501534D01*
X178688646Y-95489153D01*
X178559844Y-95484124D01*
X178432371Y-95488696D01*
X178350846Y-95499965D01*
X178302229Y-95514838D01*
X178270659Y-95533483D01*
X178249536Y-95555856D01*
X178236984Y-95582419D01*
X178232620Y-95614550D01*
X178049542Y-95614550D01*
X178054263Y-95538166D01*
X178069154Y-95465814D01*
X178092455Y-95404937D01*
X178123583Y-95353748D01*
X178162583Y-95310895D01*
X178207833Y-95277929D01*
X178266925Y-95250079D01*
X178342922Y-95228136D01*
X178439467Y-95213509D01*
X178560699Y-95208130D01*
X178673690Y-95213390D01*
G37*
G36*
X178846158Y-96771101D02*
G01*
X178814281Y-96736063D01*
X178767949Y-96700220D01*
X178703642Y-96663512D01*
X178635874Y-96635547D01*
X178569823Y-96619311D01*
X178504706Y-96613992D01*
X178420756Y-96619842D01*
X178346891Y-96636604D01*
X178281548Y-96663548D01*
X178223463Y-96700572D01*
X178171742Y-96748203D01*
X178129628Y-96803151D01*
X178095892Y-96867264D01*
X178070670Y-96941952D01*
X178054633Y-97028975D01*
X178048949Y-97130382D01*
X178054526Y-97236062D01*
X178070156Y-97325561D01*
X178094516Y-97401214D01*
X178126771Y-97465051D01*
X178166613Y-97518728D01*
X178216068Y-97564994D01*
X178273258Y-97601343D01*
X178339320Y-97628117D01*
X178415828Y-97644978D01*
X178504706Y-97650925D01*
X178569823Y-97645606D01*
X178635874Y-97629369D01*
X178703642Y-97601405D01*
X178767949Y-97564697D01*
X178814281Y-97528854D01*
X178846158Y-97493816D01*
X178846158Y-97642071D01*
X179065000Y-97642071D01*
X179065000Y-97190527D01*
X178846158Y-97190527D01*
X178800263Y-97244156D01*
X178746536Y-97285608D01*
X178683920Y-97315824D01*
X178610711Y-97334776D01*
X178524673Y-97341469D01*
X178452923Y-97336135D01*
X178397514Y-97321674D01*
X178355053Y-97299685D01*
X178322953Y-97270688D01*
X178299663Y-97234062D01*
X178284863Y-97188134D01*
X178279515Y-97130382D01*
X178284028Y-97080320D01*
X178296710Y-97038963D01*
X178316919Y-97004592D01*
X178344911Y-96976021D01*
X178391282Y-96947977D01*
X178450094Y-96929987D01*
X178524673Y-96923447D01*
X178604283Y-96929818D01*
X178674860Y-96948191D01*
X178737977Y-96978065D01*
X178794830Y-97019759D01*
X178846158Y-97074390D01*
X179065000Y-97074390D01*
X179065000Y-96622174D01*
X178846158Y-96622174D01*
X178846158Y-96771101D01*
G37*
G36*
X183915000Y-94156359D02*
G01*
X183915000Y-93321598D01*
X183834907Y-93337506D01*
X183757849Y-93366303D01*
X183682969Y-93408671D01*
X183615125Y-93462985D01*
X183530877Y-93550592D01*
X183426758Y-93681612D01*
X183339129Y-93790996D01*
X183289494Y-93838050D01*
X183241951Y-93864347D01*
X183200528Y-93872183D01*
X183171592Y-93868411D01*
X183145967Y-93857306D01*
X183122737Y-93838355D01*
X183104938Y-93814138D01*
X183094177Y-93786152D01*
X183090436Y-93753297D01*
X183094360Y-93719192D01*
X183105586Y-93690581D01*
X183124080Y-93666225D01*
X183148879Y-93647940D01*
X183186940Y-93632412D01*
X183242843Y-93620796D01*
X183220190Y-93342115D01*
X183142317Y-93357330D01*
X183081961Y-93377710D01*
X183035908Y-93402198D01*
X182995636Y-93434869D01*
X182961864Y-93475598D01*
X182934303Y-93525480D01*
X182915993Y-93579862D01*
X182903587Y-93651890D01*
X182898949Y-93745787D01*
X182903374Y-93844076D01*
X182915142Y-93918698D01*
X182932349Y-93974276D01*
X182958966Y-94025393D01*
X182993036Y-94067858D01*
X183034993Y-94102687D01*
X183082902Y-94128676D01*
X183134250Y-94144235D01*
X183190087Y-94149520D01*
X183249471Y-94143686D01*
X183307338Y-94126080D01*
X183364659Y-94095909D01*
X183416175Y-94055679D01*
X183476420Y-93992779D01*
X183546987Y-93900881D01*
X183627892Y-93788468D01*
X183688342Y-93721912D01*
X183688342Y-94156359D01*
X183915000Y-94156359D01*
G37*
G36*
X183915000Y-95089367D02*
G01*
X183915000Y-94254606D01*
X183834907Y-94270513D01*
X183757849Y-94299311D01*
X183682969Y-94341678D01*
X183615125Y-94395993D01*
X183530877Y-94483600D01*
X183426758Y-94614620D01*
X183339129Y-94724004D01*
X183289494Y-94771057D01*
X183241951Y-94797354D01*
X183200528Y-94805190D01*
X183171592Y-94801419D01*
X183145967Y-94790314D01*
X183122737Y-94771363D01*
X183104938Y-94747145D01*
X183094177Y-94719160D01*
X183090436Y-94686305D01*
X183094360Y-94652200D01*
X183105586Y-94623589D01*
X183124080Y-94599233D01*
X183148879Y-94580948D01*
X183186940Y-94565420D01*
X183242843Y-94553803D01*
X183220190Y-94275122D01*
X183142317Y-94290337D01*
X183081961Y-94310717D01*
X183035908Y-94335206D01*
X182995636Y-94367876D01*
X182961864Y-94408605D01*
X182934303Y-94458488D01*
X182915993Y-94512870D01*
X182903587Y-94584898D01*
X182898949Y-94678795D01*
X182903374Y-94777083D01*
X182915142Y-94851705D01*
X182932349Y-94907284D01*
X182958966Y-94958400D01*
X182993036Y-95000865D01*
X183034993Y-95035694D01*
X183082902Y-95061684D01*
X183134250Y-95077242D01*
X183190087Y-95082528D01*
X183249471Y-95076694D01*
X183307338Y-95059088D01*
X183364659Y-95028917D01*
X183416175Y-94988687D01*
X183476420Y-94925787D01*
X183546987Y-94833889D01*
X183627892Y-94721476D01*
X183688342Y-94654920D01*
X183688342Y-95089367D01*
X183915000Y-95089367D01*
G37*
G36*
X183523690Y-95213390D02*
G01*
X183622030Y-95228280D01*
X183685124Y-95244710D01*
X183734589Y-95263689D01*
X183772728Y-95284639D01*
X183820784Y-95321437D01*
X183859781Y-95363859D01*
X183890514Y-95412378D01*
X183911685Y-95465830D01*
X183925564Y-95532915D01*
X183930631Y-95616626D01*
X183924565Y-95709170D01*
X183907797Y-95784471D01*
X183881900Y-95845559D01*
X183847601Y-95894903D01*
X183804724Y-95934264D01*
X183755221Y-95964199D01*
X183693284Y-95989329D01*
X183616533Y-96008908D01*
X183522219Y-96021787D01*
X183407280Y-96026466D01*
X183287849Y-96019373D01*
X183174577Y-95998439D01*
X183118439Y-95981315D01*
X183072178Y-95960520D01*
X183030018Y-95933184D01*
X182988464Y-95895979D01*
X182953194Y-95850328D01*
X182923801Y-95790100D01*
X182910721Y-95746140D01*
X182902096Y-95691502D01*
X182898949Y-95624137D01*
X182899542Y-95614550D01*
X183082620Y-95614550D01*
X183086852Y-95646140D01*
X183099124Y-95672888D01*
X183119874Y-95696014D01*
X183150886Y-95715972D01*
X183199038Y-95732208D01*
X183282785Y-95744681D01*
X183417355Y-95749799D01*
X183543528Y-95745420D01*
X183616290Y-95735084D01*
X183657711Y-95722437D01*
X183688058Y-95707027D01*
X183709652Y-95689349D01*
X183731795Y-95655402D01*
X183739145Y-95615954D01*
X183734951Y-95586241D01*
X183722655Y-95560607D01*
X183701559Y-95537944D01*
X183669596Y-95517891D01*
X183620762Y-95501534D01*
X183538646Y-95489153D01*
X183409844Y-95484124D01*
X183282371Y-95488696D01*
X183200846Y-95499965D01*
X183152229Y-95514838D01*
X183120659Y-95533483D01*
X183099536Y-95555856D01*
X183086984Y-95582419D01*
X183082620Y-95614550D01*
X182899542Y-95614550D01*
X182904263Y-95538166D01*
X182919154Y-95465814D01*
X182942455Y-95404937D01*
X182973583Y-95353748D01*
X183012583Y-95310895D01*
X183057833Y-95277929D01*
X183116925Y-95250079D01*
X183192922Y-95228136D01*
X183289467Y-95213509D01*
X183410699Y-95208130D01*
X183523690Y-95213390D01*
G37*
G36*
X183696158Y-96771101D02*
G01*
X183664281Y-96736063D01*
X183617949Y-96700220D01*
X183553642Y-96663512D01*
X183485874Y-96635547D01*
X183419823Y-96619311D01*
X183354706Y-96613992D01*
X183270756Y-96619842D01*
X183196891Y-96636604D01*
X183131548Y-96663548D01*
X183073463Y-96700572D01*
X183021742Y-96748203D01*
X182979628Y-96803151D01*
X182945892Y-96867264D01*
X182920670Y-96941952D01*
X182904633Y-97028975D01*
X182898949Y-97130382D01*
X182904526Y-97236062D01*
X182920156Y-97325561D01*
X182944516Y-97401214D01*
X182976771Y-97465051D01*
X183016613Y-97518728D01*
X183066068Y-97564994D01*
X183123258Y-97601343D01*
X183189320Y-97628117D01*
X183265828Y-97644978D01*
X183354706Y-97650925D01*
X183419823Y-97645606D01*
X183485874Y-97629369D01*
X183553642Y-97601405D01*
X183617949Y-97564697D01*
X183664281Y-97528854D01*
X183696158Y-97493816D01*
X183696158Y-97642071D01*
X183915000Y-97642071D01*
X183915000Y-97190527D01*
X183696158Y-97190527D01*
X183650263Y-97244156D01*
X183596536Y-97285608D01*
X183533920Y-97315824D01*
X183460711Y-97334776D01*
X183374673Y-97341469D01*
X183302923Y-97336135D01*
X183247514Y-97321674D01*
X183205053Y-97299685D01*
X183172953Y-97270688D01*
X183149663Y-97234062D01*
X183134863Y-97188134D01*
X183129515Y-97130382D01*
X183134028Y-97080320D01*
X183146710Y-97038963D01*
X183166919Y-97004592D01*
X183194911Y-96976021D01*
X183241282Y-96947977D01*
X183300094Y-96929987D01*
X183374673Y-96923447D01*
X183454283Y-96929818D01*
X183524860Y-96948191D01*
X183587977Y-96978065D01*
X183644830Y-97019759D01*
X183696158Y-97074390D01*
X183915000Y-97074390D01*
X183915000Y-96622174D01*
X183696158Y-96622174D01*
X183696158Y-96771101D01*
G37*
G36*
X158915000Y-94156359D02*
G01*
X158915000Y-93321598D01*
X158834907Y-93337506D01*
X158757849Y-93366303D01*
X158682969Y-93408671D01*
X158615125Y-93462985D01*
X158530877Y-93550592D01*
X158426758Y-93681612D01*
X158339129Y-93790996D01*
X158289494Y-93838050D01*
X158241951Y-93864347D01*
X158200528Y-93872183D01*
X158171592Y-93868411D01*
X158145967Y-93857306D01*
X158122737Y-93838355D01*
X158104938Y-93814138D01*
X158094177Y-93786152D01*
X158090436Y-93753297D01*
X158094360Y-93719192D01*
X158105586Y-93690581D01*
X158124080Y-93666225D01*
X158148879Y-93647940D01*
X158186940Y-93632412D01*
X158242843Y-93620796D01*
X158220190Y-93342115D01*
X158142317Y-93357330D01*
X158081961Y-93377710D01*
X158035908Y-93402198D01*
X157995636Y-93434869D01*
X157961864Y-93475598D01*
X157934303Y-93525480D01*
X157915993Y-93579862D01*
X157903587Y-93651890D01*
X157898949Y-93745787D01*
X157903374Y-93844076D01*
X157915142Y-93918698D01*
X157932349Y-93974276D01*
X157958966Y-94025393D01*
X157993036Y-94067858D01*
X158034993Y-94102687D01*
X158082902Y-94128676D01*
X158134250Y-94144235D01*
X158190087Y-94149520D01*
X158249471Y-94143686D01*
X158307338Y-94126080D01*
X158364659Y-94095909D01*
X158416175Y-94055679D01*
X158476420Y-93992779D01*
X158546987Y-93900881D01*
X158627892Y-93788468D01*
X158688342Y-93721912D01*
X158688342Y-94156359D01*
X158915000Y-94156359D01*
G37*
G36*
X158915000Y-95089367D02*
G01*
X158915000Y-94254606D01*
X158834907Y-94270513D01*
X158757849Y-94299311D01*
X158682969Y-94341678D01*
X158615125Y-94395993D01*
X158530877Y-94483600D01*
X158426758Y-94614620D01*
X158339129Y-94724004D01*
X158289494Y-94771057D01*
X158241951Y-94797354D01*
X158200528Y-94805190D01*
X158171592Y-94801419D01*
X158145967Y-94790314D01*
X158122737Y-94771363D01*
X158104938Y-94747145D01*
X158094177Y-94719160D01*
X158090436Y-94686305D01*
X158094360Y-94652200D01*
X158105586Y-94623589D01*
X158124080Y-94599233D01*
X158148879Y-94580948D01*
X158186940Y-94565420D01*
X158242843Y-94553803D01*
X158220190Y-94275122D01*
X158142317Y-94290337D01*
X158081961Y-94310717D01*
X158035908Y-94335206D01*
X157995636Y-94367876D01*
X157961864Y-94408605D01*
X157934303Y-94458488D01*
X157915993Y-94512870D01*
X157903587Y-94584898D01*
X157898949Y-94678795D01*
X157903374Y-94777083D01*
X157915142Y-94851705D01*
X157932349Y-94907284D01*
X157958966Y-94958400D01*
X157993036Y-95000865D01*
X158034993Y-95035694D01*
X158082902Y-95061684D01*
X158134250Y-95077242D01*
X158190087Y-95082528D01*
X158249471Y-95076694D01*
X158307338Y-95059088D01*
X158364659Y-95028917D01*
X158416175Y-94988687D01*
X158476420Y-94925787D01*
X158546987Y-94833889D01*
X158627892Y-94721476D01*
X158688342Y-94654920D01*
X158688342Y-95089367D01*
X158915000Y-95089367D01*
G37*
G36*
X158523690Y-95213390D02*
G01*
X158622030Y-95228280D01*
X158685124Y-95244710D01*
X158734589Y-95263689D01*
X158772728Y-95284639D01*
X158820784Y-95321437D01*
X158859781Y-95363859D01*
X158890514Y-95412378D01*
X158911685Y-95465830D01*
X158925564Y-95532915D01*
X158930631Y-95616626D01*
X158924565Y-95709170D01*
X158907797Y-95784471D01*
X158881900Y-95845559D01*
X158847601Y-95894903D01*
X158804724Y-95934264D01*
X158755221Y-95964199D01*
X158693284Y-95989329D01*
X158616533Y-96008908D01*
X158522219Y-96021787D01*
X158407280Y-96026466D01*
X158287849Y-96019373D01*
X158174577Y-95998439D01*
X158118439Y-95981315D01*
X158072178Y-95960520D01*
X158030018Y-95933184D01*
X157988464Y-95895979D01*
X157953194Y-95850328D01*
X157923801Y-95790100D01*
X157910721Y-95746140D01*
X157902096Y-95691502D01*
X157898949Y-95624137D01*
X157899542Y-95614550D01*
X158082620Y-95614550D01*
X158086852Y-95646140D01*
X158099124Y-95672888D01*
X158119874Y-95696014D01*
X158150886Y-95715972D01*
X158199038Y-95732208D01*
X158282785Y-95744681D01*
X158417355Y-95749799D01*
X158543528Y-95745420D01*
X158616290Y-95735084D01*
X158657711Y-95722437D01*
X158688058Y-95707027D01*
X158709652Y-95689349D01*
X158731795Y-95655402D01*
X158739145Y-95615954D01*
X158734951Y-95586241D01*
X158722655Y-95560607D01*
X158701559Y-95537944D01*
X158669596Y-95517891D01*
X158620762Y-95501534D01*
X158538646Y-95489153D01*
X158409844Y-95484124D01*
X158282371Y-95488696D01*
X158200846Y-95499965D01*
X158152229Y-95514838D01*
X158120659Y-95533483D01*
X158099536Y-95555856D01*
X158086984Y-95582419D01*
X158082620Y-95614550D01*
X157899542Y-95614550D01*
X157904263Y-95538166D01*
X157919154Y-95465814D01*
X157942455Y-95404937D01*
X157973583Y-95353748D01*
X158012583Y-95310895D01*
X158057833Y-95277929D01*
X158116925Y-95250079D01*
X158192922Y-95228136D01*
X158289467Y-95213509D01*
X158410699Y-95208130D01*
X158523690Y-95213390D01*
G37*
G36*
X158696158Y-96771101D02*
G01*
X158664281Y-96736063D01*
X158617949Y-96700220D01*
X158553642Y-96663512D01*
X158485874Y-96635547D01*
X158419823Y-96619311D01*
X158354706Y-96613992D01*
X158270756Y-96619842D01*
X158196891Y-96636604D01*
X158131548Y-96663548D01*
X158073463Y-96700572D01*
X158021742Y-96748203D01*
X157979628Y-96803151D01*
X157945892Y-96867264D01*
X157920670Y-96941952D01*
X157904633Y-97028975D01*
X157898949Y-97130382D01*
X157904526Y-97236062D01*
X157920156Y-97325561D01*
X157944516Y-97401214D01*
X157976771Y-97465051D01*
X158016613Y-97518728D01*
X158066068Y-97564994D01*
X158123258Y-97601343D01*
X158189320Y-97628117D01*
X158265828Y-97644978D01*
X158354706Y-97650925D01*
X158419823Y-97645606D01*
X158485874Y-97629369D01*
X158553642Y-97601405D01*
X158617949Y-97564697D01*
X158664281Y-97528854D01*
X158696158Y-97493816D01*
X158696158Y-97642071D01*
X158915000Y-97642071D01*
X158915000Y-97190527D01*
X158696158Y-97190527D01*
X158650263Y-97244156D01*
X158596536Y-97285608D01*
X158533920Y-97315824D01*
X158460711Y-97334776D01*
X158374673Y-97341469D01*
X158302923Y-97336135D01*
X158247514Y-97321674D01*
X158205053Y-97299685D01*
X158172953Y-97270688D01*
X158149663Y-97234062D01*
X158134863Y-97188134D01*
X158129515Y-97130382D01*
X158134028Y-97080320D01*
X158146710Y-97038963D01*
X158166919Y-97004592D01*
X158194911Y-96976021D01*
X158241282Y-96947977D01*
X158300094Y-96929987D01*
X158374673Y-96923447D01*
X158454283Y-96929818D01*
X158524860Y-96948191D01*
X158587977Y-96978065D01*
X158644830Y-97019759D01*
X158696158Y-97074390D01*
X158915000Y-97074390D01*
X158915000Y-96622174D01*
X158696158Y-96622174D01*
X158696158Y-96771101D01*
G37*
G36*
X174115000Y-94156359D02*
G01*
X174115000Y-93321598D01*
X174034907Y-93337506D01*
X173957849Y-93366303D01*
X173882969Y-93408671D01*
X173815125Y-93462985D01*
X173730877Y-93550592D01*
X173626758Y-93681612D01*
X173539129Y-93790996D01*
X173489494Y-93838050D01*
X173441951Y-93864347D01*
X173400528Y-93872183D01*
X173371592Y-93868411D01*
X173345967Y-93857306D01*
X173322737Y-93838355D01*
X173304938Y-93814138D01*
X173294177Y-93786152D01*
X173290436Y-93753297D01*
X173294360Y-93719192D01*
X173305586Y-93690581D01*
X173324080Y-93666225D01*
X173348879Y-93647940D01*
X173386940Y-93632412D01*
X173442843Y-93620796D01*
X173420190Y-93342115D01*
X173342317Y-93357330D01*
X173281961Y-93377710D01*
X173235908Y-93402198D01*
X173195636Y-93434869D01*
X173161864Y-93475598D01*
X173134303Y-93525480D01*
X173115993Y-93579862D01*
X173103587Y-93651890D01*
X173098949Y-93745787D01*
X173103374Y-93844076D01*
X173115142Y-93918698D01*
X173132349Y-93974276D01*
X173158966Y-94025393D01*
X173193036Y-94067858D01*
X173234993Y-94102687D01*
X173282902Y-94128676D01*
X173334250Y-94144235D01*
X173390087Y-94149520D01*
X173449471Y-94143686D01*
X173507338Y-94126080D01*
X173564659Y-94095909D01*
X173616175Y-94055679D01*
X173676420Y-93992779D01*
X173746987Y-93900881D01*
X173827892Y-93788468D01*
X173888342Y-93721912D01*
X173888342Y-94156359D01*
X174115000Y-94156359D01*
G37*
G36*
X174115000Y-95089367D02*
G01*
X174115000Y-94254606D01*
X174034907Y-94270513D01*
X173957849Y-94299311D01*
X173882969Y-94341678D01*
X173815125Y-94395993D01*
X173730877Y-94483600D01*
X173626758Y-94614620D01*
X173539129Y-94724004D01*
X173489494Y-94771057D01*
X173441951Y-94797354D01*
X173400528Y-94805190D01*
X173371592Y-94801419D01*
X173345967Y-94790314D01*
X173322737Y-94771363D01*
X173304938Y-94747145D01*
X173294177Y-94719160D01*
X173290436Y-94686305D01*
X173294360Y-94652200D01*
X173305586Y-94623589D01*
X173324080Y-94599233D01*
X173348879Y-94580948D01*
X173386940Y-94565420D01*
X173442843Y-94553803D01*
X173420190Y-94275122D01*
X173342317Y-94290337D01*
X173281961Y-94310717D01*
X173235908Y-94335206D01*
X173195636Y-94367876D01*
X173161864Y-94408605D01*
X173134303Y-94458488D01*
X173115993Y-94512870D01*
X173103587Y-94584898D01*
X173098949Y-94678795D01*
X173103374Y-94777083D01*
X173115142Y-94851705D01*
X173132349Y-94907284D01*
X173158966Y-94958400D01*
X173193036Y-95000865D01*
X173234993Y-95035694D01*
X173282902Y-95061684D01*
X173334250Y-95077242D01*
X173390087Y-95082528D01*
X173449471Y-95076694D01*
X173507338Y-95059088D01*
X173564659Y-95028917D01*
X173616175Y-94988687D01*
X173676420Y-94925787D01*
X173746987Y-94833889D01*
X173827892Y-94721476D01*
X173888342Y-94654920D01*
X173888342Y-95089367D01*
X174115000Y-95089367D01*
G37*
G36*
X173723690Y-95213390D02*
G01*
X173822030Y-95228280D01*
X173885124Y-95244710D01*
X173934589Y-95263689D01*
X173972728Y-95284639D01*
X174020784Y-95321437D01*
X174059781Y-95363859D01*
X174090514Y-95412378D01*
X174111685Y-95465830D01*
X174125564Y-95532915D01*
X174130631Y-95616626D01*
X174124565Y-95709170D01*
X174107797Y-95784471D01*
X174081900Y-95845559D01*
X174047601Y-95894903D01*
X174004724Y-95934264D01*
X173955221Y-95964199D01*
X173893284Y-95989329D01*
X173816533Y-96008908D01*
X173722219Y-96021787D01*
X173607280Y-96026466D01*
X173487849Y-96019373D01*
X173374577Y-95998439D01*
X173318439Y-95981315D01*
X173272178Y-95960520D01*
X173230018Y-95933184D01*
X173188464Y-95895979D01*
X173153194Y-95850328D01*
X173123801Y-95790100D01*
X173110721Y-95746140D01*
X173102096Y-95691502D01*
X173098949Y-95624137D01*
X173099542Y-95614550D01*
X173282620Y-95614550D01*
X173286852Y-95646140D01*
X173299124Y-95672888D01*
X173319874Y-95696014D01*
X173350886Y-95715972D01*
X173399038Y-95732208D01*
X173482785Y-95744681D01*
X173617355Y-95749799D01*
X173743528Y-95745420D01*
X173816290Y-95735084D01*
X173857711Y-95722437D01*
X173888058Y-95707027D01*
X173909652Y-95689349D01*
X173931795Y-95655402D01*
X173939145Y-95615954D01*
X173934951Y-95586241D01*
X173922655Y-95560607D01*
X173901559Y-95537944D01*
X173869596Y-95517891D01*
X173820762Y-95501534D01*
X173738646Y-95489153D01*
X173609844Y-95484124D01*
X173482371Y-95488696D01*
X173400846Y-95499965D01*
X173352229Y-95514838D01*
X173320659Y-95533483D01*
X173299536Y-95555856D01*
X173286984Y-95582419D01*
X173282620Y-95614550D01*
X173099542Y-95614550D01*
X173104263Y-95538166D01*
X173119154Y-95465814D01*
X173142455Y-95404937D01*
X173173583Y-95353748D01*
X173212583Y-95310895D01*
X173257833Y-95277929D01*
X173316925Y-95250079D01*
X173392922Y-95228136D01*
X173489467Y-95213509D01*
X173610699Y-95208130D01*
X173723690Y-95213390D01*
G37*
G36*
X173896158Y-96771101D02*
G01*
X173864281Y-96736063D01*
X173817949Y-96700220D01*
X173753642Y-96663512D01*
X173685874Y-96635547D01*
X173619823Y-96619311D01*
X173554706Y-96613992D01*
X173470756Y-96619842D01*
X173396891Y-96636604D01*
X173331548Y-96663548D01*
X173273463Y-96700572D01*
X173221742Y-96748203D01*
X173179628Y-96803151D01*
X173145892Y-96867264D01*
X173120670Y-96941952D01*
X173104633Y-97028975D01*
X173098949Y-97130382D01*
X173104526Y-97236062D01*
X173120156Y-97325561D01*
X173144516Y-97401214D01*
X173176771Y-97465051D01*
X173216613Y-97518728D01*
X173266068Y-97564994D01*
X173323258Y-97601343D01*
X173389320Y-97628117D01*
X173465828Y-97644978D01*
X173554706Y-97650925D01*
X173619823Y-97645606D01*
X173685874Y-97629369D01*
X173753642Y-97601405D01*
X173817949Y-97564697D01*
X173864281Y-97528854D01*
X173896158Y-97493816D01*
X173896158Y-97642071D01*
X174115000Y-97642071D01*
X174115000Y-97190527D01*
X173896158Y-97190527D01*
X173850263Y-97244156D01*
X173796536Y-97285608D01*
X173733920Y-97315824D01*
X173660711Y-97334776D01*
X173574673Y-97341469D01*
X173502923Y-97336135D01*
X173447514Y-97321674D01*
X173405053Y-97299685D01*
X173372953Y-97270688D01*
X173349663Y-97234062D01*
X173334863Y-97188134D01*
X173329515Y-97130382D01*
X173334028Y-97080320D01*
X173346710Y-97038963D01*
X173366919Y-97004592D01*
X173394911Y-96976021D01*
X173441282Y-96947977D01*
X173500094Y-96929987D01*
X173574673Y-96923447D01*
X173654283Y-96929818D01*
X173724860Y-96948191D01*
X173787977Y-96978065D01*
X173844830Y-97019759D01*
X173896158Y-97074390D01*
X174115000Y-97074390D01*
X174115000Y-96622174D01*
X173896158Y-96622174D01*
X173896158Y-96771101D01*
G37*
G36*
X163915000Y-94156359D02*
G01*
X163915000Y-93321598D01*
X163834907Y-93337506D01*
X163757849Y-93366303D01*
X163682969Y-93408671D01*
X163615125Y-93462985D01*
X163530877Y-93550592D01*
X163426758Y-93681612D01*
X163339129Y-93790996D01*
X163289494Y-93838050D01*
X163241951Y-93864347D01*
X163200528Y-93872183D01*
X163171592Y-93868411D01*
X163145967Y-93857306D01*
X163122737Y-93838355D01*
X163104938Y-93814138D01*
X163094177Y-93786152D01*
X163090436Y-93753297D01*
X163094360Y-93719192D01*
X163105586Y-93690581D01*
X163124080Y-93666225D01*
X163148879Y-93647940D01*
X163186940Y-93632412D01*
X163242843Y-93620796D01*
X163220190Y-93342115D01*
X163142317Y-93357330D01*
X163081961Y-93377710D01*
X163035908Y-93402198D01*
X162995636Y-93434869D01*
X162961864Y-93475598D01*
X162934303Y-93525480D01*
X162915993Y-93579862D01*
X162903587Y-93651890D01*
X162898949Y-93745787D01*
X162903374Y-93844076D01*
X162915142Y-93918698D01*
X162932349Y-93974276D01*
X162958966Y-94025393D01*
X162993036Y-94067858D01*
X163034993Y-94102687D01*
X163082902Y-94128676D01*
X163134250Y-94144235D01*
X163190087Y-94149520D01*
X163249471Y-94143686D01*
X163307338Y-94126080D01*
X163364659Y-94095909D01*
X163416175Y-94055679D01*
X163476420Y-93992779D01*
X163546987Y-93900881D01*
X163627892Y-93788468D01*
X163688342Y-93721912D01*
X163688342Y-94156359D01*
X163915000Y-94156359D01*
G37*
G36*
X163915000Y-95089367D02*
G01*
X163915000Y-94254606D01*
X163834907Y-94270513D01*
X163757849Y-94299311D01*
X163682969Y-94341678D01*
X163615125Y-94395993D01*
X163530877Y-94483600D01*
X163426758Y-94614620D01*
X163339129Y-94724004D01*
X163289494Y-94771057D01*
X163241951Y-94797354D01*
X163200528Y-94805190D01*
X163171592Y-94801419D01*
X163145967Y-94790314D01*
X163122737Y-94771363D01*
X163104938Y-94747145D01*
X163094177Y-94719160D01*
X163090436Y-94686305D01*
X163094360Y-94652200D01*
X163105586Y-94623589D01*
X163124080Y-94599233D01*
X163148879Y-94580948D01*
X163186940Y-94565420D01*
X163242843Y-94553803D01*
X163220190Y-94275122D01*
X163142317Y-94290337D01*
X163081961Y-94310717D01*
X163035908Y-94335206D01*
X162995636Y-94367876D01*
X162961864Y-94408605D01*
X162934303Y-94458488D01*
X162915993Y-94512870D01*
X162903587Y-94584898D01*
X162898949Y-94678795D01*
X162903374Y-94777083D01*
X162915142Y-94851705D01*
X162932349Y-94907284D01*
X162958966Y-94958400D01*
X162993036Y-95000865D01*
X163034993Y-95035694D01*
X163082902Y-95061684D01*
X163134250Y-95077242D01*
X163190087Y-95082528D01*
X163249471Y-95076694D01*
X163307338Y-95059088D01*
X163364659Y-95028917D01*
X163416175Y-94988687D01*
X163476420Y-94925787D01*
X163546987Y-94833889D01*
X163627892Y-94721476D01*
X163688342Y-94654920D01*
X163688342Y-95089367D01*
X163915000Y-95089367D01*
G37*
G36*
X163523690Y-95213390D02*
G01*
X163622030Y-95228280D01*
X163685124Y-95244710D01*
X163734589Y-95263689D01*
X163772728Y-95284639D01*
X163820784Y-95321437D01*
X163859781Y-95363859D01*
X163890514Y-95412378D01*
X163911685Y-95465830D01*
X163925564Y-95532915D01*
X163930631Y-95616626D01*
X163924565Y-95709170D01*
X163907797Y-95784471D01*
X163881900Y-95845559D01*
X163847601Y-95894903D01*
X163804724Y-95934264D01*
X163755221Y-95964199D01*
X163693284Y-95989329D01*
X163616533Y-96008908D01*
X163522219Y-96021787D01*
X163407280Y-96026466D01*
X163287849Y-96019373D01*
X163174577Y-95998439D01*
X163118439Y-95981315D01*
X163072178Y-95960520D01*
X163030018Y-95933184D01*
X162988464Y-95895979D01*
X162953194Y-95850328D01*
X162923801Y-95790100D01*
X162910721Y-95746140D01*
X162902096Y-95691502D01*
X162898949Y-95624137D01*
X162899542Y-95614550D01*
X163082620Y-95614550D01*
X163086852Y-95646140D01*
X163099124Y-95672888D01*
X163119874Y-95696014D01*
X163150886Y-95715972D01*
X163199038Y-95732208D01*
X163282785Y-95744681D01*
X163417355Y-95749799D01*
X163543528Y-95745420D01*
X163616290Y-95735084D01*
X163657711Y-95722437D01*
X163688058Y-95707027D01*
X163709652Y-95689349D01*
X163731795Y-95655402D01*
X163739145Y-95615954D01*
X163734951Y-95586241D01*
X163722655Y-95560607D01*
X163701559Y-95537944D01*
X163669596Y-95517891D01*
X163620762Y-95501534D01*
X163538646Y-95489153D01*
X163409844Y-95484124D01*
X163282371Y-95488696D01*
X163200846Y-95499965D01*
X163152229Y-95514838D01*
X163120659Y-95533483D01*
X163099536Y-95555856D01*
X163086984Y-95582419D01*
X163082620Y-95614550D01*
X162899542Y-95614550D01*
X162904263Y-95538166D01*
X162919154Y-95465814D01*
X162942455Y-95404937D01*
X162973583Y-95353748D01*
X163012583Y-95310895D01*
X163057833Y-95277929D01*
X163116925Y-95250079D01*
X163192922Y-95228136D01*
X163289467Y-95213509D01*
X163410699Y-95208130D01*
X163523690Y-95213390D01*
G37*
G36*
X163696158Y-96771101D02*
G01*
X163664281Y-96736063D01*
X163617949Y-96700220D01*
X163553642Y-96663512D01*
X163485874Y-96635547D01*
X163419823Y-96619311D01*
X163354706Y-96613992D01*
X163270756Y-96619842D01*
X163196891Y-96636604D01*
X163131548Y-96663548D01*
X163073463Y-96700572D01*
X163021742Y-96748203D01*
X162979628Y-96803151D01*
X162945892Y-96867264D01*
X162920670Y-96941952D01*
X162904633Y-97028975D01*
X162898949Y-97130382D01*
X162904526Y-97236062D01*
X162920156Y-97325561D01*
X162944516Y-97401214D01*
X162976771Y-97465051D01*
X163016613Y-97518728D01*
X163066068Y-97564994D01*
X163123258Y-97601343D01*
X163189320Y-97628117D01*
X163265828Y-97644978D01*
X163354706Y-97650925D01*
X163419823Y-97645606D01*
X163485874Y-97629369D01*
X163553642Y-97601405D01*
X163617949Y-97564697D01*
X163664281Y-97528854D01*
X163696158Y-97493816D01*
X163696158Y-97642071D01*
X163915000Y-97642071D01*
X163915000Y-97190527D01*
X163696158Y-97190527D01*
X163650263Y-97244156D01*
X163596536Y-97285608D01*
X163533920Y-97315824D01*
X163460711Y-97334776D01*
X163374673Y-97341469D01*
X163302923Y-97336135D01*
X163247514Y-97321674D01*
X163205053Y-97299685D01*
X163172953Y-97270688D01*
X163149663Y-97234062D01*
X163134863Y-97188134D01*
X163129515Y-97130382D01*
X163134028Y-97080320D01*
X163146710Y-97038963D01*
X163166919Y-97004592D01*
X163194911Y-96976021D01*
X163241282Y-96947977D01*
X163300094Y-96929987D01*
X163374673Y-96923447D01*
X163454283Y-96929818D01*
X163524860Y-96948191D01*
X163587977Y-96978065D01*
X163644830Y-97019759D01*
X163696158Y-97074390D01*
X163915000Y-97074390D01*
X163915000Y-96622174D01*
X163696158Y-96622174D01*
X163696158Y-96771101D01*
G37*
G36*
X168915000Y-94156359D02*
G01*
X168915000Y-93321598D01*
X168834907Y-93337506D01*
X168757849Y-93366303D01*
X168682969Y-93408671D01*
X168615125Y-93462985D01*
X168530877Y-93550592D01*
X168426758Y-93681612D01*
X168339129Y-93790996D01*
X168289494Y-93838050D01*
X168241951Y-93864347D01*
X168200528Y-93872183D01*
X168171592Y-93868411D01*
X168145967Y-93857306D01*
X168122737Y-93838355D01*
X168104938Y-93814138D01*
X168094177Y-93786152D01*
X168090436Y-93753297D01*
X168094360Y-93719192D01*
X168105586Y-93690581D01*
X168124080Y-93666225D01*
X168148879Y-93647940D01*
X168186940Y-93632412D01*
X168242843Y-93620796D01*
X168220190Y-93342115D01*
X168142317Y-93357330D01*
X168081961Y-93377710D01*
X168035908Y-93402198D01*
X167995636Y-93434869D01*
X167961864Y-93475598D01*
X167934303Y-93525480D01*
X167915993Y-93579862D01*
X167903587Y-93651890D01*
X167898949Y-93745787D01*
X167903374Y-93844076D01*
X167915142Y-93918698D01*
X167932349Y-93974276D01*
X167958966Y-94025393D01*
X167993036Y-94067858D01*
X168034993Y-94102687D01*
X168082902Y-94128676D01*
X168134250Y-94144235D01*
X168190087Y-94149520D01*
X168249471Y-94143686D01*
X168307338Y-94126080D01*
X168364659Y-94095909D01*
X168416175Y-94055679D01*
X168476420Y-93992779D01*
X168546987Y-93900881D01*
X168627892Y-93788468D01*
X168688342Y-93721912D01*
X168688342Y-94156359D01*
X168915000Y-94156359D01*
G37*
G36*
X168915000Y-95089367D02*
G01*
X168915000Y-94254606D01*
X168834907Y-94270513D01*
X168757849Y-94299311D01*
X168682969Y-94341678D01*
X168615125Y-94395993D01*
X168530877Y-94483600D01*
X168426758Y-94614620D01*
X168339129Y-94724004D01*
X168289494Y-94771057D01*
X168241951Y-94797354D01*
X168200528Y-94805190D01*
X168171592Y-94801419D01*
X168145967Y-94790314D01*
X168122737Y-94771363D01*
X168104938Y-94747145D01*
X168094177Y-94719160D01*
X168090436Y-94686305D01*
X168094360Y-94652200D01*
X168105586Y-94623589D01*
X168124080Y-94599233D01*
X168148879Y-94580948D01*
X168186940Y-94565420D01*
X168242843Y-94553803D01*
X168220190Y-94275122D01*
X168142317Y-94290337D01*
X168081961Y-94310717D01*
X168035908Y-94335206D01*
X167995636Y-94367876D01*
X167961864Y-94408605D01*
X167934303Y-94458488D01*
X167915993Y-94512870D01*
X167903587Y-94584898D01*
X167898949Y-94678795D01*
X167903374Y-94777083D01*
X167915142Y-94851705D01*
X167932349Y-94907284D01*
X167958966Y-94958400D01*
X167993036Y-95000865D01*
X168034993Y-95035694D01*
X168082902Y-95061684D01*
X168134250Y-95077242D01*
X168190087Y-95082528D01*
X168249471Y-95076694D01*
X168307338Y-95059088D01*
X168364659Y-95028917D01*
X168416175Y-94988687D01*
X168476420Y-94925787D01*
X168546987Y-94833889D01*
X168627892Y-94721476D01*
X168688342Y-94654920D01*
X168688342Y-95089367D01*
X168915000Y-95089367D01*
G37*
G36*
X168523690Y-95213390D02*
G01*
X168622030Y-95228280D01*
X168685124Y-95244710D01*
X168734589Y-95263689D01*
X168772728Y-95284639D01*
X168820784Y-95321437D01*
X168859781Y-95363859D01*
X168890514Y-95412378D01*
X168911685Y-95465830D01*
X168925564Y-95532915D01*
X168930631Y-95616626D01*
X168924565Y-95709170D01*
X168907797Y-95784471D01*
X168881900Y-95845559D01*
X168847601Y-95894903D01*
X168804724Y-95934264D01*
X168755221Y-95964199D01*
X168693284Y-95989329D01*
X168616533Y-96008908D01*
X168522219Y-96021787D01*
X168407280Y-96026466D01*
X168287849Y-96019373D01*
X168174577Y-95998439D01*
X168118439Y-95981315D01*
X168072178Y-95960520D01*
X168030018Y-95933184D01*
X167988464Y-95895979D01*
X167953194Y-95850328D01*
X167923801Y-95790100D01*
X167910721Y-95746140D01*
X167902096Y-95691502D01*
X167898949Y-95624137D01*
X167899542Y-95614550D01*
X168082620Y-95614550D01*
X168086852Y-95646140D01*
X168099124Y-95672888D01*
X168119874Y-95696014D01*
X168150886Y-95715972D01*
X168199038Y-95732208D01*
X168282785Y-95744681D01*
X168417355Y-95749799D01*
X168543528Y-95745420D01*
X168616290Y-95735084D01*
X168657711Y-95722437D01*
X168688058Y-95707027D01*
X168709652Y-95689349D01*
X168731795Y-95655402D01*
X168739145Y-95615954D01*
X168734951Y-95586241D01*
X168722655Y-95560607D01*
X168701559Y-95537944D01*
X168669596Y-95517891D01*
X168620762Y-95501534D01*
X168538646Y-95489153D01*
X168409844Y-95484124D01*
X168282371Y-95488696D01*
X168200846Y-95499965D01*
X168152229Y-95514838D01*
X168120659Y-95533483D01*
X168099536Y-95555856D01*
X168086984Y-95582419D01*
X168082620Y-95614550D01*
X167899542Y-95614550D01*
X167904263Y-95538166D01*
X167919154Y-95465814D01*
X167942455Y-95404937D01*
X167973583Y-95353748D01*
X168012583Y-95310895D01*
X168057833Y-95277929D01*
X168116925Y-95250079D01*
X168192922Y-95228136D01*
X168289467Y-95213509D01*
X168410699Y-95208130D01*
X168523690Y-95213390D01*
G37*
G36*
X168696158Y-96771101D02*
G01*
X168664281Y-96736063D01*
X168617949Y-96700220D01*
X168553642Y-96663512D01*
X168485874Y-96635547D01*
X168419823Y-96619311D01*
X168354706Y-96613992D01*
X168270756Y-96619842D01*
X168196891Y-96636604D01*
X168131548Y-96663548D01*
X168073463Y-96700572D01*
X168021742Y-96748203D01*
X167979628Y-96803151D01*
X167945892Y-96867264D01*
X167920670Y-96941952D01*
X167904633Y-97028975D01*
X167898949Y-97130382D01*
X167904526Y-97236062D01*
X167920156Y-97325561D01*
X167944516Y-97401214D01*
X167976771Y-97465051D01*
X168016613Y-97518728D01*
X168066068Y-97564994D01*
X168123258Y-97601343D01*
X168189320Y-97628117D01*
X168265828Y-97644978D01*
X168354706Y-97650925D01*
X168419823Y-97645606D01*
X168485874Y-97629369D01*
X168553642Y-97601405D01*
X168617949Y-97564697D01*
X168664281Y-97528854D01*
X168696158Y-97493816D01*
X168696158Y-97642071D01*
X168915000Y-97642071D01*
X168915000Y-97190527D01*
X168696158Y-97190527D01*
X168650263Y-97244156D01*
X168596536Y-97285608D01*
X168533920Y-97315824D01*
X168460711Y-97334776D01*
X168374673Y-97341469D01*
X168302923Y-97336135D01*
X168247514Y-97321674D01*
X168205053Y-97299685D01*
X168172953Y-97270688D01*
X168149663Y-97234062D01*
X168134863Y-97188134D01*
X168129515Y-97130382D01*
X168134028Y-97080320D01*
X168146710Y-97038963D01*
X168166919Y-97004592D01*
X168194911Y-96976021D01*
X168241282Y-96947977D01*
X168300094Y-96929987D01*
X168374673Y-96923447D01*
X168454283Y-96929818D01*
X168524860Y-96948191D01*
X168587977Y-96978065D01*
X168644830Y-97019759D01*
X168696158Y-97074390D01*
X168915000Y-97074390D01*
X168915000Y-96622174D01*
X168696158Y-96622174D01*
X168696158Y-96771101D01*
G37*
X176934391Y-102431009D02*
X176791534Y-102478628D01*
X176791534Y-102478628D02*
X176743915Y-102526247D01*
X176743915Y-102526247D02*
X176696296Y-102621485D01*
X176696296Y-102621485D02*
X176696296Y-102764342D01*
X176696296Y-102764342D02*
X176743915Y-102859580D01*
X176743915Y-102859580D02*
X176791534Y-102907200D01*
X176791534Y-102907200D02*
X176886772Y-102954819D01*
X176886772Y-102954819D02*
X177267724Y-102954819D01*
X177267724Y-102954819D02*
X177267724Y-101954819D01*
X177267724Y-101954819D02*
X176934391Y-101954819D01*
X176934391Y-101954819D02*
X176839153Y-102002438D01*
X176839153Y-102002438D02*
X176791534Y-102050057D01*
X176791534Y-102050057D02*
X176743915Y-102145295D01*
X176743915Y-102145295D02*
X176743915Y-102240533D01*
X176743915Y-102240533D02*
X176791534Y-102335771D01*
X176791534Y-102335771D02*
X176839153Y-102383390D01*
X176839153Y-102383390D02*
X176934391Y-102431009D01*
X176934391Y-102431009D02*
X177267724Y-102431009D01*
X175839153Y-102954819D02*
X175839153Y-102431009D01*
X175839153Y-102431009D02*
X175886772Y-102335771D01*
X175886772Y-102335771D02*
X175982010Y-102288152D01*
X175982010Y-102288152D02*
X176172486Y-102288152D01*
X176172486Y-102288152D02*
X176267724Y-102335771D01*
X175839153Y-102907200D02*
X175934391Y-102954819D01*
X175934391Y-102954819D02*
X176172486Y-102954819D01*
X176172486Y-102954819D02*
X176267724Y-102907200D01*
X176267724Y-102907200D02*
X176315343Y-102811961D01*
X176315343Y-102811961D02*
X176315343Y-102716723D01*
X176315343Y-102716723D02*
X176267724Y-102621485D01*
X176267724Y-102621485D02*
X176172486Y-102573866D01*
X176172486Y-102573866D02*
X175934391Y-102573866D01*
X175934391Y-102573866D02*
X175839153Y-102526247D01*
X175505819Y-102288152D02*
X175124867Y-102288152D01*
X175362962Y-101954819D02*
X175362962Y-102811961D01*
X175362962Y-102811961D02*
X175315343Y-102907200D01*
X175315343Y-102907200D02*
X175220105Y-102954819D01*
X175220105Y-102954819D02*
X175124867Y-102954819D01*
X174934390Y-102288152D02*
X174553438Y-102288152D01*
X174791533Y-101954819D02*
X174791533Y-102811961D01*
X174791533Y-102811961D02*
X174743914Y-102907200D01*
X174743914Y-102907200D02*
X174648676Y-102954819D01*
X174648676Y-102954819D02*
X174553438Y-102954819D01*
X173839152Y-102907200D02*
X173934390Y-102954819D01*
X173934390Y-102954819D02*
X174124866Y-102954819D01*
X174124866Y-102954819D02*
X174220104Y-102907200D01*
X174220104Y-102907200D02*
X174267723Y-102811961D01*
X174267723Y-102811961D02*
X174267723Y-102431009D01*
X174267723Y-102431009D02*
X174220104Y-102335771D01*
X174220104Y-102335771D02*
X174124866Y-102288152D01*
X174124866Y-102288152D02*
X173934390Y-102288152D01*
X173934390Y-102288152D02*
X173839152Y-102335771D01*
X173839152Y-102335771D02*
X173791533Y-102431009D01*
X173791533Y-102431009D02*
X173791533Y-102526247D01*
X173791533Y-102526247D02*
X174267723Y-102621485D01*
X173362961Y-102954819D02*
X173362961Y-102288152D01*
X173362961Y-102478628D02*
X173315342Y-102383390D01*
X173315342Y-102383390D02*
X173267723Y-102335771D01*
X173267723Y-102335771D02*
X173172485Y-102288152D01*
X173172485Y-102288152D02*
X173077247Y-102288152D01*
X172839151Y-102288152D02*
X172601056Y-102954819D01*
X172362961Y-102288152D02*
X172601056Y-102954819D01*
X172601056Y-102954819D02*
X172696294Y-103192914D01*
X172696294Y-103192914D02*
X172743913Y-103240533D01*
X172743913Y-103240533D02*
X172839151Y-103288152D01*
X171220103Y-102954819D02*
X171220103Y-101954819D01*
X171220103Y-101954819D02*
X170886770Y-102669104D01*
X170886770Y-102669104D02*
X170553437Y-101954819D01*
X170553437Y-101954819D02*
X170553437Y-102954819D01*
X169934389Y-102954819D02*
X170029627Y-102907200D01*
X170029627Y-102907200D02*
X170077246Y-102859580D01*
X170077246Y-102859580D02*
X170124865Y-102764342D01*
X170124865Y-102764342D02*
X170124865Y-102478628D01*
X170124865Y-102478628D02*
X170077246Y-102383390D01*
X170077246Y-102383390D02*
X170029627Y-102335771D01*
X170029627Y-102335771D02*
X169934389Y-102288152D01*
X169934389Y-102288152D02*
X169791532Y-102288152D01*
X169791532Y-102288152D02*
X169696294Y-102335771D01*
X169696294Y-102335771D02*
X169648675Y-102383390D01*
X169648675Y-102383390D02*
X169601056Y-102478628D01*
X169601056Y-102478628D02*
X169601056Y-102764342D01*
X169601056Y-102764342D02*
X169648675Y-102859580D01*
X169648675Y-102859580D02*
X169696294Y-102907200D01*
X169696294Y-102907200D02*
X169791532Y-102954819D01*
X169791532Y-102954819D02*
X169934389Y-102954819D01*
X168743913Y-102288152D02*
X168743913Y-102954819D01*
X169172484Y-102288152D02*
X169172484Y-102811961D01*
X169172484Y-102811961D02*
X169124865Y-102907200D01*
X169124865Y-102907200D02*
X169029627Y-102954819D01*
X169029627Y-102954819D02*
X168886770Y-102954819D01*
X168886770Y-102954819D02*
X168791532Y-102907200D01*
X168791532Y-102907200D02*
X168743913Y-102859580D01*
X168267722Y-102288152D02*
X168267722Y-102954819D01*
X168267722Y-102383390D02*
X168220103Y-102335771D01*
X168220103Y-102335771D02*
X168124865Y-102288152D01*
X168124865Y-102288152D02*
X167982008Y-102288152D01*
X167982008Y-102288152D02*
X167886770Y-102335771D01*
X167886770Y-102335771D02*
X167839151Y-102431009D01*
X167839151Y-102431009D02*
X167839151Y-102954819D01*
X167505817Y-102288152D02*
X167124865Y-102288152D01*
X167362960Y-101954819D02*
X167362960Y-102811961D01*
X167362960Y-102811961D02*
X167315341Y-102907200D01*
X167315341Y-102907200D02*
X167220103Y-102954819D01*
X167220103Y-102954819D02*
X167124865Y-102954819D01*
X165743912Y-103335771D02*
X165791531Y-103288152D01*
X165791531Y-103288152D02*
X165886769Y-103145295D01*
X165886769Y-103145295D02*
X165934388Y-103050057D01*
X165934388Y-103050057D02*
X165982007Y-102907200D01*
X165982007Y-102907200D02*
X166029626Y-102669104D01*
X166029626Y-102669104D02*
X166029626Y-102478628D01*
X166029626Y-102478628D02*
X165982007Y-102240533D01*
X165982007Y-102240533D02*
X165934388Y-102097676D01*
X165934388Y-102097676D02*
X165886769Y-102002438D01*
X165886769Y-102002438D02*
X165791531Y-101859580D01*
X165791531Y-101859580D02*
X165743912Y-101811961D01*
X164791531Y-102859580D02*
X164839150Y-102907200D01*
X164839150Y-102907200D02*
X164982007Y-102954819D01*
X164982007Y-102954819D02*
X165077245Y-102954819D01*
X165077245Y-102954819D02*
X165220102Y-102907200D01*
X165220102Y-102907200D02*
X165315340Y-102811961D01*
X165315340Y-102811961D02*
X165362959Y-102716723D01*
X165362959Y-102716723D02*
X165410578Y-102526247D01*
X165410578Y-102526247D02*
X165410578Y-102383390D01*
X165410578Y-102383390D02*
X165362959Y-102192914D01*
X165362959Y-102192914D02*
X165315340Y-102097676D01*
X165315340Y-102097676D02*
X165220102Y-102002438D01*
X165220102Y-102002438D02*
X165077245Y-101954819D01*
X165077245Y-101954819D02*
X164982007Y-101954819D01*
X164982007Y-101954819D02*
X164839150Y-102002438D01*
X164839150Y-102002438D02*
X164791531Y-102050057D01*
X163791531Y-102954819D02*
X164124864Y-102478628D01*
X164362959Y-102954819D02*
X164362959Y-101954819D01*
X164362959Y-101954819D02*
X163982007Y-101954819D01*
X163982007Y-101954819D02*
X163886769Y-102002438D01*
X163886769Y-102002438D02*
X163839150Y-102050057D01*
X163839150Y-102050057D02*
X163791531Y-102145295D01*
X163791531Y-102145295D02*
X163791531Y-102288152D01*
X163791531Y-102288152D02*
X163839150Y-102383390D01*
X163839150Y-102383390D02*
X163886769Y-102431009D01*
X163886769Y-102431009D02*
X163982007Y-102478628D01*
X163982007Y-102478628D02*
X164362959Y-102478628D01*
X163410578Y-102050057D02*
X163362959Y-102002438D01*
X163362959Y-102002438D02*
X163267721Y-101954819D01*
X163267721Y-101954819D02*
X163029626Y-101954819D01*
X163029626Y-101954819D02*
X162934388Y-102002438D01*
X162934388Y-102002438D02*
X162886769Y-102050057D01*
X162886769Y-102050057D02*
X162839150Y-102145295D01*
X162839150Y-102145295D02*
X162839150Y-102240533D01*
X162839150Y-102240533D02*
X162886769Y-102383390D01*
X162886769Y-102383390D02*
X163458197Y-102954819D01*
X163458197Y-102954819D02*
X162839150Y-102954819D01*
X162220102Y-101954819D02*
X162124864Y-101954819D01*
X162124864Y-101954819D02*
X162029626Y-102002438D01*
X162029626Y-102002438D02*
X161982007Y-102050057D01*
X161982007Y-102050057D02*
X161934388Y-102145295D01*
X161934388Y-102145295D02*
X161886769Y-102335771D01*
X161886769Y-102335771D02*
X161886769Y-102573866D01*
X161886769Y-102573866D02*
X161934388Y-102764342D01*
X161934388Y-102764342D02*
X161982007Y-102859580D01*
X161982007Y-102859580D02*
X162029626Y-102907200D01*
X162029626Y-102907200D02*
X162124864Y-102954819D01*
X162124864Y-102954819D02*
X162220102Y-102954819D01*
X162220102Y-102954819D02*
X162315340Y-102907200D01*
X162315340Y-102907200D02*
X162362959Y-102859580D01*
X162362959Y-102859580D02*
X162410578Y-102764342D01*
X162410578Y-102764342D02*
X162458197Y-102573866D01*
X162458197Y-102573866D02*
X162458197Y-102335771D01*
X162458197Y-102335771D02*
X162410578Y-102145295D01*
X162410578Y-102145295D02*
X162362959Y-102050057D01*
X162362959Y-102050057D02*
X162315340Y-102002438D01*
X162315340Y-102002438D02*
X162220102Y-101954819D01*
X161553435Y-101954819D02*
X160934388Y-101954819D01*
X160934388Y-101954819D02*
X161267721Y-102335771D01*
X161267721Y-102335771D02*
X161124864Y-102335771D01*
X161124864Y-102335771D02*
X161029626Y-102383390D01*
X161029626Y-102383390D02*
X160982007Y-102431009D01*
X160982007Y-102431009D02*
X160934388Y-102526247D01*
X160934388Y-102526247D02*
X160934388Y-102764342D01*
X160934388Y-102764342D02*
X160982007Y-102859580D01*
X160982007Y-102859580D02*
X161029626Y-102907200D01*
X161029626Y-102907200D02*
X161124864Y-102954819D01*
X161124864Y-102954819D02*
X161410578Y-102954819D01*
X161410578Y-102954819D02*
X161505816Y-102907200D01*
X161505816Y-102907200D02*
X161553435Y-102859580D01*
X160553435Y-102050057D02*
X160505816Y-102002438D01*
X160505816Y-102002438D02*
X160410578Y-101954819D01*
X160410578Y-101954819D02*
X160172483Y-101954819D01*
X160172483Y-101954819D02*
X160077245Y-102002438D01*
X160077245Y-102002438D02*
X160029626Y-102050057D01*
X160029626Y-102050057D02*
X159982007Y-102145295D01*
X159982007Y-102145295D02*
X159982007Y-102240533D01*
X159982007Y-102240533D02*
X160029626Y-102383390D01*
X160029626Y-102383390D02*
X160601054Y-102954819D01*
X160601054Y-102954819D02*
X159982007Y-102954819D01*
X159648673Y-103335771D02*
X159601054Y-103288152D01*
X159601054Y-103288152D02*
X159505816Y-103145295D01*
X159505816Y-103145295D02*
X159458197Y-103050057D01*
X159458197Y-103050057D02*
X159410578Y-102907200D01*
X159410578Y-102907200D02*
X159362959Y-102669104D01*
X159362959Y-102669104D02*
X159362959Y-102478628D01*
X159362959Y-102478628D02*
X159410578Y-102240533D01*
X159410578Y-102240533D02*
X159458197Y-102097676D01*
X159458197Y-102097676D02*
X159505816Y-102002438D01*
X159505816Y-102002438D02*
X159601054Y-101859580D01*
X159601054Y-101859580D02*
X159648673Y-101811961D01*
D12*
G04 #@! TO.C,G\u002A\u002A\u002A*
G36*
X192238017Y-120266358D02*
G01*
X192341869Y-120523242D01*
X192444051Y-120778905D01*
X192542463Y-121028352D01*
X192556975Y-121060911D01*
X192573179Y-121068889D01*
X192598547Y-121041723D01*
X192642658Y-120974239D01*
X192724678Y-120863419D01*
X192877790Y-120725783D01*
X193062814Y-120630567D01*
X193281454Y-120576710D01*
X193291064Y-120575303D01*
X193443492Y-120545473D01*
X193634749Y-120497090D01*
X193855402Y-120433145D01*
X194096022Y-120356627D01*
X194347179Y-120270526D01*
X194599440Y-120177832D01*
X194843376Y-120081535D01*
X194977143Y-120024746D01*
X195254393Y-119897393D01*
X195544953Y-119753019D01*
X195832755Y-119600020D01*
X196101731Y-119446792D01*
X196335813Y-119301730D01*
X196678714Y-119077467D01*
X196687569Y-119162879D01*
X196688757Y-119199293D01*
X196679579Y-119237369D01*
X196653514Y-119276296D01*
X196604712Y-119321358D01*
X196527328Y-119377839D01*
X196415513Y-119451024D01*
X196263419Y-119546199D01*
X196227257Y-119568421D01*
X195904291Y-119753547D01*
X195544923Y-119938969D01*
X195163959Y-120118003D01*
X194776208Y-120283966D01*
X194396479Y-120430174D01*
X194039579Y-120549943D01*
X193943648Y-120579604D01*
X193843391Y-120611292D01*
X193771908Y-120634707D01*
X193740457Y-120646226D01*
X193739516Y-120649558D01*
X193758883Y-120681434D01*
X193806436Y-120738277D01*
X193874423Y-120810580D01*
X193923394Y-120862187D01*
X194029890Y-120991771D01*
X194124374Y-121136873D01*
X194214347Y-121309834D01*
X194307311Y-121523001D01*
X194376172Y-121700824D01*
X194482926Y-122019609D01*
X194572742Y-122345198D01*
X194644016Y-122668701D01*
X194695145Y-122981226D01*
X194724523Y-123273882D01*
X194728373Y-123442510D01*
X194730548Y-123537780D01*
X194711615Y-123764029D01*
X194707589Y-123788133D01*
X194671600Y-123940770D01*
X194620827Y-124089599D01*
X194561666Y-124218087D01*
X194500511Y-124309703D01*
X194482668Y-124331242D01*
X194478981Y-124347189D01*
X194503182Y-124353308D01*
X194563764Y-124351261D01*
X194669220Y-124342710D01*
X194747912Y-124335079D01*
X195036077Y-124294066D01*
X195331406Y-124233635D01*
X195623775Y-124156952D01*
X195903058Y-124067184D01*
X196159131Y-123967497D01*
X196381869Y-123861058D01*
X196561147Y-123751033D01*
X196692110Y-123656945D01*
X196692110Y-123760513D01*
X196692091Y-123766372D01*
X196684716Y-123834353D01*
X196655116Y-123882110D01*
X196590301Y-123931455D01*
X196437828Y-124021649D01*
X196188554Y-124138633D01*
X195900771Y-124245499D01*
X195583014Y-124339792D01*
X195243819Y-124419055D01*
X194891720Y-124480834D01*
X194535254Y-124522672D01*
X194386123Y-124534330D01*
X194257446Y-124539072D01*
X194157861Y-124533236D01*
X194074660Y-124515039D01*
X193995136Y-124482696D01*
X193906580Y-124434425D01*
X193895245Y-124427706D01*
X193717430Y-124298085D01*
X193547921Y-124131999D01*
X193402606Y-123944883D01*
X193382663Y-123915129D01*
X193347643Y-123864449D01*
X193332087Y-123844408D01*
X193331188Y-123847624D01*
X193329153Y-123886165D01*
X193328340Y-123954323D01*
X193325297Y-124009089D01*
X193301491Y-124076539D01*
X193243056Y-124140440D01*
X193240030Y-124143121D01*
X193123630Y-124215908D01*
X193001402Y-124237421D01*
X192878955Y-124206638D01*
X192795021Y-124151662D01*
X192704543Y-124044040D01*
X192645041Y-123909664D01*
X192619602Y-123760265D01*
X192622974Y-123716304D01*
X192780876Y-123716304D01*
X192794362Y-123844002D01*
X192841677Y-123958530D01*
X192920071Y-124043731D01*
X192967175Y-124072377D01*
X193022602Y-124081252D01*
X193088419Y-124053531D01*
X193144182Y-124013116D01*
X193167942Y-123960920D01*
X193162796Y-123879593D01*
X193158275Y-123833823D01*
X193168394Y-123774780D01*
X193205433Y-123728005D01*
X193275975Y-123688939D01*
X193386605Y-123653023D01*
X193543904Y-123615699D01*
X193624283Y-123598312D01*
X193532695Y-123521393D01*
X193493147Y-123491674D01*
X193373038Y-123426057D01*
X193241311Y-123379700D01*
X193122505Y-123362130D01*
X193027704Y-123378145D01*
X192917097Y-123437617D01*
X192832798Y-123530889D01*
X192803969Y-123591598D01*
X192780876Y-123716304D01*
X192622974Y-123716304D01*
X192631315Y-123607574D01*
X192683268Y-123463323D01*
X192751232Y-123336773D01*
X192660868Y-123293893D01*
X192634767Y-123278990D01*
X192560333Y-123217906D01*
X192495228Y-123142389D01*
X192484430Y-123125829D01*
X192430794Y-122998672D01*
X192406667Y-122851870D01*
X192408867Y-122805334D01*
X192566530Y-122805334D01*
X192580016Y-122933031D01*
X192627331Y-123047560D01*
X192705725Y-123132761D01*
X192752829Y-123161406D01*
X192808256Y-123170281D01*
X192874073Y-123142561D01*
X192929836Y-123102146D01*
X192953596Y-123049949D01*
X192948450Y-122968623D01*
X192943929Y-122922852D01*
X192944411Y-122920041D01*
X193102764Y-122920041D01*
X193113362Y-123013818D01*
X193113823Y-123017795D01*
X193126713Y-123095770D01*
X193142547Y-123154482D01*
X193156694Y-123179813D01*
X193186867Y-123201371D01*
X193188180Y-123201318D01*
X193199820Y-123178217D01*
X193183559Y-123112246D01*
X193139097Y-123002151D01*
X193102764Y-122920041D01*
X192944411Y-122920041D01*
X192954048Y-122863810D01*
X192991087Y-122817035D01*
X193061629Y-122777969D01*
X193172259Y-122742053D01*
X193329558Y-122704729D01*
X193409938Y-122687342D01*
X193318349Y-122610422D01*
X193278801Y-122580703D01*
X193158692Y-122515087D01*
X193026965Y-122468729D01*
X192908159Y-122451160D01*
X192813358Y-122467174D01*
X192702751Y-122526647D01*
X192618452Y-122619918D01*
X192589623Y-122680627D01*
X192566530Y-122805334D01*
X192408867Y-122805334D01*
X192413576Y-122705754D01*
X192453047Y-122580654D01*
X192504316Y-122482407D01*
X192414699Y-122465594D01*
X192330722Y-122430456D01*
X192239126Y-122358017D01*
X192159961Y-122264172D01*
X192108543Y-122164006D01*
X192097974Y-122118632D01*
X192087998Y-122019707D01*
X192088608Y-121947950D01*
X192245011Y-121947950D01*
X192258497Y-122075647D01*
X192305812Y-122190176D01*
X192384206Y-122275377D01*
X192431310Y-122304022D01*
X192486737Y-122312897D01*
X192552554Y-122285177D01*
X192586833Y-122260333D01*
X192780972Y-122260333D01*
X192797066Y-122292797D01*
X192825770Y-122295686D01*
X192840098Y-122280812D01*
X192833925Y-122236882D01*
X192818738Y-122219105D01*
X192792781Y-122215397D01*
X192787325Y-122222230D01*
X192780972Y-122260333D01*
X192586833Y-122260333D01*
X192608317Y-122244762D01*
X192632077Y-122192565D01*
X192626931Y-122111239D01*
X192622410Y-122065468D01*
X192632529Y-122006426D01*
X192669568Y-121959651D01*
X192740110Y-121920585D01*
X192850740Y-121884669D01*
X193008039Y-121847345D01*
X193088419Y-121829958D01*
X192996830Y-121753038D01*
X192957282Y-121723319D01*
X192837173Y-121657703D01*
X192705446Y-121611345D01*
X192586640Y-121593776D01*
X192491839Y-121609790D01*
X192381232Y-121669263D01*
X192296933Y-121762534D01*
X192268104Y-121823243D01*
X192245011Y-121947950D01*
X192088608Y-121947950D01*
X192088889Y-121914878D01*
X192095014Y-121859911D01*
X192142705Y-121702584D01*
X192232364Y-121578039D01*
X192363233Y-121487458D01*
X192407147Y-121464680D01*
X192463518Y-121429177D01*
X192485570Y-121405546D01*
X192484141Y-121397740D01*
X192468492Y-121348284D01*
X192462601Y-121331906D01*
X192673279Y-121331906D01*
X192689793Y-121403133D01*
X192746882Y-121455169D01*
X192851051Y-121497664D01*
X192939157Y-121531666D01*
X193040214Y-121593636D01*
X193146556Y-121688608D01*
X193148106Y-121690161D01*
X193220584Y-121770239D01*
X193263358Y-121829958D01*
X193270671Y-121840168D01*
X193289368Y-121887417D01*
X193288439Y-121898173D01*
X193255101Y-121948344D01*
X193181957Y-121982879D01*
X193079976Y-121996085D01*
X193075779Y-121996118D01*
X193000935Y-122003832D01*
X192965917Y-122030806D01*
X192966855Y-122085803D01*
X192999883Y-122177590D01*
X193024910Y-122233728D01*
X193054576Y-122280812D01*
X193062469Y-122293340D01*
X193112504Y-122330032D01*
X193193163Y-122361026D01*
X193263639Y-122392849D01*
X193358619Y-122454262D01*
X193452095Y-122530509D01*
X193532805Y-122611245D01*
X193589490Y-122686124D01*
X193589934Y-122687342D01*
X193610887Y-122744801D01*
X193609738Y-122756877D01*
X193575359Y-122806839D01*
X193500799Y-122840635D01*
X193396378Y-122853058D01*
X193339564Y-122859348D01*
X193305183Y-122875938D01*
X193304534Y-122877403D01*
X193308717Y-122915986D01*
X193329450Y-122988091D01*
X193362681Y-123079380D01*
X193376112Y-123112390D01*
X193408179Y-123178217D01*
X193424310Y-123211330D01*
X193477128Y-123280477D01*
X193547341Y-123337702D01*
X193584807Y-123365148D01*
X193674541Y-123443811D01*
X193751391Y-123527833D01*
X193800321Y-123598312D01*
X193805055Y-123605131D01*
X193825233Y-123663624D01*
X193822479Y-123679307D01*
X193783436Y-123722263D01*
X193708459Y-123752559D01*
X193610724Y-123764029D01*
X193553813Y-123770520D01*
X193519057Y-123787673D01*
X193517964Y-123790086D01*
X193528637Y-123829143D01*
X193569872Y-123893714D01*
X193633421Y-123974442D01*
X193711037Y-124061971D01*
X193794471Y-124146942D01*
X193875475Y-124220000D01*
X193945802Y-124271787D01*
X194062592Y-124326822D01*
X194171714Y-124338253D01*
X194271906Y-124301842D01*
X194288555Y-124290865D01*
X194384838Y-124193465D01*
X194464116Y-124052715D01*
X194523849Y-123875829D01*
X194561496Y-123670022D01*
X194574517Y-123442510D01*
X194574505Y-123436544D01*
X194561137Y-123179608D01*
X194524560Y-122896888D01*
X194467698Y-122598304D01*
X194393469Y-122293779D01*
X194304795Y-121993233D01*
X194204598Y-121706588D01*
X194095796Y-121443765D01*
X193981313Y-121214685D01*
X193864067Y-121029271D01*
X193788095Y-120938907D01*
X193642627Y-120822384D01*
X193482517Y-120755771D01*
X193312536Y-120739941D01*
X193137452Y-120775767D01*
X192962034Y-120864123D01*
X192886702Y-120928475D01*
X192800307Y-121031842D01*
X192728275Y-121146710D01*
X192685512Y-121252162D01*
X192673279Y-121331906D01*
X192462601Y-121331906D01*
X192439251Y-121266991D01*
X192400999Y-121166797D01*
X192316427Y-120950738D01*
X191948871Y-120950738D01*
X191905780Y-120950948D01*
X191723747Y-120956696D01*
X191536349Y-120971097D01*
X191338580Y-120995213D01*
X191125439Y-121030106D01*
X190891923Y-121076839D01*
X190633027Y-121136475D01*
X190442782Y-121184879D01*
X190343749Y-121210076D01*
X190019085Y-121298705D01*
X189654032Y-121403425D01*
X189243587Y-121525298D01*
X188956655Y-121610223D01*
X188588139Y-121713989D01*
X188253473Y-121800822D01*
X187943437Y-121872671D01*
X187648812Y-121931485D01*
X187360379Y-121979212D01*
X187068919Y-122017803D01*
X186765212Y-122049205D01*
X186673279Y-122056727D01*
X186446705Y-122069321D01*
X186212085Y-122075187D01*
X185981678Y-122074463D01*
X185767742Y-122067290D01*
X185582536Y-122053807D01*
X185438317Y-122034151D01*
X185272484Y-121998063D01*
X184897873Y-121885697D01*
X184500838Y-121726643D01*
X184082735Y-121521596D01*
X183644918Y-121271251D01*
X183527131Y-121195094D01*
X184723644Y-121195094D01*
X184768016Y-121247682D01*
X184863648Y-121295321D01*
X185009284Y-121337192D01*
X185109703Y-121356854D01*
X185225122Y-121373165D01*
X185315753Y-121379430D01*
X185335672Y-121379618D01*
X185378417Y-121379525D01*
X185408956Y-121372485D01*
X185430583Y-121350812D01*
X185446596Y-121306824D01*
X185458927Y-121240202D01*
X185653292Y-121240202D01*
X185653292Y-121335991D01*
X185653350Y-121343117D01*
X185668195Y-121421636D01*
X185715317Y-121472421D01*
X185731066Y-121481326D01*
X185807132Y-121509414D01*
X185896172Y-121528080D01*
X185968249Y-121531658D01*
X186095155Y-121503431D01*
X186197119Y-121428710D01*
X186273368Y-121308513D01*
X186323129Y-121143858D01*
X186345630Y-120935764D01*
X186346824Y-120897126D01*
X186342675Y-120714760D01*
X186318856Y-120572245D01*
X186273023Y-120460290D01*
X186202832Y-120369603D01*
X186152715Y-120324467D01*
X186093217Y-120293478D01*
X186939368Y-120293478D01*
X186951806Y-120337269D01*
X186993464Y-120413116D01*
X187055260Y-120502011D01*
X187127634Y-120590394D01*
X187201026Y-120664702D01*
X187226647Y-120688699D01*
X187242237Y-120717469D01*
X187234965Y-120757814D01*
X187205321Y-120828403D01*
X187177414Y-120897126D01*
X187176271Y-120899941D01*
X187133025Y-121032150D01*
X187101402Y-121162294D01*
X187084908Y-121274796D01*
X187087047Y-121354077D01*
X187112588Y-121415775D01*
X187154130Y-121460032D01*
X187201640Y-121480879D01*
X187252899Y-121478970D01*
X187313050Y-121439556D01*
X187336591Y-121414000D01*
X187365691Y-121356082D01*
X187393192Y-121263827D01*
X187422430Y-121127730D01*
X187437686Y-121051240D01*
X187459187Y-120951227D01*
X187476445Y-120880173D01*
X187486712Y-120849947D01*
X187492188Y-120845532D01*
X187529721Y-120847176D01*
X187568567Y-120884661D01*
X187594658Y-120945529D01*
X187611298Y-120998791D01*
X187664364Y-121095934D01*
X187737424Y-121183299D01*
X187819865Y-121251168D01*
X187901071Y-121289823D01*
X187970427Y-121289545D01*
X188003427Y-121255740D01*
X188005543Y-121184879D01*
X187973325Y-121076510D01*
X187906493Y-120929053D01*
X187906361Y-120928789D01*
X187840075Y-120789910D01*
X187793030Y-120669769D01*
X187760264Y-120550285D01*
X187736817Y-120413380D01*
X187717729Y-120240971D01*
X187702962Y-120110650D01*
X187683274Y-120009251D01*
X187656839Y-119946544D01*
X187649723Y-119940356D01*
X187884235Y-119940356D01*
X187903683Y-120017470D01*
X187952538Y-120061521D01*
X188019930Y-120065699D01*
X188094987Y-120023195D01*
X188110274Y-120011255D01*
X188179910Y-119992622D01*
X188251625Y-120020704D01*
X188314135Y-120091960D01*
X188320758Y-120103376D01*
X188384776Y-120239196D01*
X188431363Y-120385450D01*
X188459000Y-120530577D01*
X188466165Y-120663014D01*
X188451337Y-120771198D01*
X188412997Y-120843565D01*
X188357339Y-120879114D01*
X188279973Y-120897151D01*
X188215358Y-120910904D01*
X188169616Y-120955279D01*
X188159221Y-121017049D01*
X188185827Y-121082440D01*
X188251090Y-121137676D01*
X188314261Y-121160975D01*
X188427216Y-121162878D01*
X188539167Y-121123630D01*
X188637272Y-121048683D01*
X188708692Y-120943486D01*
X188715373Y-120928043D01*
X188754630Y-120780548D01*
X188764710Y-120611259D01*
X188748546Y-120430845D01*
X188709069Y-120249973D01*
X188649210Y-120079311D01*
X188571902Y-119929528D01*
X188480076Y-119811292D01*
X188376663Y-119735271D01*
X188369194Y-119731800D01*
X188339894Y-119723111D01*
X188911943Y-119723111D01*
X188912440Y-119865611D01*
X188912853Y-119892429D01*
X188930511Y-120182429D01*
X188970788Y-120441666D01*
X188977964Y-120474927D01*
X189009057Y-120611259D01*
X189010573Y-120617906D01*
X189038258Y-120719619D01*
X189064505Y-120789739D01*
X189092804Y-120837938D01*
X189126641Y-120873887D01*
X189193713Y-120919652D01*
X189272006Y-120937710D01*
X189334540Y-120909543D01*
X189356398Y-120886572D01*
X189371760Y-120859112D01*
X189372329Y-120821449D01*
X189357722Y-120759930D01*
X189327556Y-120660903D01*
X189277558Y-120500260D01*
X189400712Y-120481792D01*
X189426328Y-120478127D01*
X189493676Y-120473892D01*
X189533253Y-120488167D01*
X189564309Y-120526177D01*
X189597834Y-120574682D01*
X189675819Y-120662828D01*
X189749574Y-120716064D01*
X189812652Y-120732021D01*
X189858606Y-120708328D01*
X189880990Y-120642615D01*
X189879475Y-120615309D01*
X189863742Y-120559472D01*
X189829965Y-120478347D01*
X189775742Y-120366780D01*
X189698672Y-120219618D01*
X189596354Y-120031707D01*
X189557777Y-119962106D01*
X189471524Y-119809270D01*
X189392221Y-119672403D01*
X189324498Y-119559298D01*
X189272984Y-119477751D01*
X189242308Y-119435557D01*
X189194610Y-119395591D01*
X189131572Y-119374716D01*
X189822634Y-119374716D01*
X189831846Y-119470113D01*
X189861674Y-119605384D01*
X189871855Y-119645676D01*
X189932677Y-119871123D01*
X189994802Y-120077646D01*
X190055837Y-120258525D01*
X190113393Y-120407041D01*
X190165080Y-120516478D01*
X190208505Y-120580115D01*
X190249491Y-120614858D01*
X190309928Y-120642615D01*
X190329071Y-120651407D01*
X190399774Y-120647214D01*
X190449909Y-120601257D01*
X190453970Y-120592712D01*
X190463628Y-120541656D01*
X190457440Y-120463501D01*
X190434700Y-120346430D01*
X190431020Y-120329573D01*
X190412389Y-120231222D01*
X190402322Y-120153918D01*
X190402931Y-120113157D01*
X190424615Y-120092979D01*
X190485398Y-120060730D01*
X190569132Y-120027804D01*
X190640012Y-120002880D01*
X190688338Y-119990460D01*
X190723073Y-119997536D01*
X190754773Y-120030556D01*
X190793992Y-120095973D01*
X190851286Y-120200237D01*
X190872795Y-120235251D01*
X190944626Y-120319708D01*
X191025274Y-120380091D01*
X191102910Y-120408932D01*
X191165707Y-120398762D01*
X191172218Y-120394288D01*
X191209914Y-120335817D01*
X191218277Y-120238061D01*
X191197234Y-120099214D01*
X191146715Y-119917470D01*
X191135002Y-119880135D01*
X191088798Y-119721334D01*
X191043671Y-119551226D01*
X191007933Y-119400754D01*
X191003843Y-119382073D01*
X190968538Y-119239612D01*
X190933690Y-119142620D01*
X190894797Y-119084033D01*
X190847358Y-119056786D01*
X190786871Y-119053815D01*
X190709679Y-119081851D01*
X190647223Y-119157448D01*
X190609696Y-119278556D01*
X190597749Y-119443832D01*
X190598852Y-119638298D01*
X190467018Y-119687476D01*
X190335185Y-119736655D01*
X190218913Y-119504390D01*
X190178018Y-119426373D01*
X190105594Y-119311726D01*
X190039771Y-119244105D01*
X189976692Y-119220140D01*
X189912501Y-119236460D01*
X189871653Y-119262951D01*
X189835437Y-119309045D01*
X189822634Y-119374716D01*
X189131572Y-119374716D01*
X189109507Y-119367409D01*
X189028179Y-119388156D01*
X188961337Y-119457014D01*
X188939199Y-119500120D01*
X188923927Y-119552033D01*
X188915307Y-119622475D01*
X188911943Y-119723111D01*
X188339894Y-119723111D01*
X188239704Y-119693400D01*
X188116739Y-119693704D01*
X188010448Y-119729413D01*
X187930981Y-119797230D01*
X187888488Y-119893859D01*
X187884235Y-119940356D01*
X187649723Y-119940356D01*
X187620196Y-119914678D01*
X187569881Y-119905801D01*
X187518893Y-119913904D01*
X187456865Y-119962668D01*
X187455407Y-119966471D01*
X187420870Y-120056560D01*
X187410242Y-120196794D01*
X187413311Y-120286160D01*
X187421239Y-120384561D01*
X187431945Y-120452739D01*
X187438058Y-120480586D01*
X187435481Y-120498800D01*
X187414035Y-120490241D01*
X187367074Y-120451516D01*
X187287950Y-120379232D01*
X187168645Y-120279104D01*
X187071509Y-120219470D01*
X186999507Y-120201641D01*
X186954755Y-120226137D01*
X186939368Y-120293478D01*
X186093217Y-120293478D01*
X186086224Y-120289836D01*
X186003066Y-120280906D01*
X185947637Y-120285990D01*
X185850186Y-120325817D01*
X185793635Y-120388018D01*
X185784528Y-120398035D01*
X185760465Y-120494034D01*
X185762085Y-120529736D01*
X185779297Y-120566834D01*
X185825867Y-120575632D01*
X185870895Y-120569579D01*
X185907828Y-120548839D01*
X185913329Y-120541361D01*
X185960003Y-120522220D01*
X186020872Y-120540662D01*
X186080039Y-120592642D01*
X186103288Y-120630935D01*
X186132495Y-120738014D01*
X186135769Y-120867008D01*
X186114917Y-121002001D01*
X186071747Y-121127081D01*
X186008067Y-121226332D01*
X185994954Y-121239508D01*
X185957430Y-121260630D01*
X185900719Y-121265967D01*
X185808139Y-121258174D01*
X185653292Y-121240202D01*
X185458927Y-121240202D01*
X185460290Y-121232838D01*
X185474962Y-121121169D01*
X185493908Y-120964134D01*
X185507511Y-120849977D01*
X185528773Y-120652818D01*
X185540919Y-120500607D01*
X185543669Y-120388018D01*
X185536740Y-120309721D01*
X185519854Y-120260391D01*
X185492728Y-120234700D01*
X185455083Y-120227320D01*
X185447979Y-120227571D01*
X185421331Y-120237355D01*
X185405348Y-120243223D01*
X185369842Y-120286852D01*
X185339905Y-120363580D01*
X185313982Y-120478528D01*
X185290518Y-120636815D01*
X185267958Y-120843565D01*
X185237997Y-121151687D01*
X185157617Y-121148565D01*
X185108108Y-121145307D01*
X185013979Y-121136477D01*
X184910379Y-121124716D01*
X184834823Y-121116357D01*
X184773561Y-121115036D01*
X184741429Y-121126294D01*
X184725057Y-121152106D01*
X184723644Y-121195094D01*
X183527131Y-121195094D01*
X183188743Y-120976304D01*
X182715564Y-120637450D01*
X182651791Y-120588985D01*
X182530853Y-120494398D01*
X182481673Y-120454950D01*
X183215106Y-120454950D01*
X183216215Y-120478754D01*
X183246763Y-120571389D01*
X183322328Y-120654026D01*
X183447195Y-120731775D01*
X183463646Y-120739910D01*
X183560697Y-120779019D01*
X183652063Y-120803182D01*
X183723590Y-120809538D01*
X183761125Y-120795226D01*
X183773321Y-120766186D01*
X183789875Y-120716345D01*
X184048519Y-120716345D01*
X184063599Y-120862862D01*
X184101315Y-120974053D01*
X184160898Y-121042953D01*
X184208441Y-121069371D01*
X184326830Y-121097331D01*
X184454548Y-121073790D01*
X184526565Y-121043973D01*
X184611062Y-120988623D01*
X184666399Y-120915617D01*
X184690734Y-120857058D01*
X184722821Y-120760328D01*
X184757912Y-120641509D01*
X184792067Y-120515200D01*
X184821343Y-120396004D01*
X184841800Y-120298522D01*
X184849494Y-120237355D01*
X184846901Y-120197909D01*
X184821883Y-120130496D01*
X184778503Y-120104053D01*
X184726912Y-120117500D01*
X184677261Y-120169752D01*
X184639698Y-120259728D01*
X184636339Y-120272681D01*
X184613152Y-120362099D01*
X184583246Y-120477446D01*
X184552220Y-120597126D01*
X184518663Y-120711746D01*
X184470424Y-120826654D01*
X184420357Y-120888753D01*
X184368051Y-120898490D01*
X184313092Y-120856313D01*
X184309177Y-120850511D01*
X184294471Y-120790591D01*
X184290979Y-120691233D01*
X184298163Y-120563287D01*
X184315484Y-120417605D01*
X184342406Y-120265037D01*
X184343245Y-120260965D01*
X184361756Y-120142192D01*
X184357769Y-120065837D01*
X184329451Y-120025048D01*
X184274969Y-120012974D01*
X184258615Y-120014198D01*
X184206903Y-120039792D01*
X184162815Y-120102670D01*
X184123408Y-120208261D01*
X184085738Y-120361996D01*
X184056844Y-120541471D01*
X184048519Y-120716345D01*
X183789875Y-120716345D01*
X183797847Y-120692341D01*
X183829680Y-120587638D01*
X183865565Y-120463775D01*
X183902246Y-120332450D01*
X183936466Y-120205360D01*
X183964970Y-120094201D01*
X183984503Y-120010673D01*
X183991807Y-119966471D01*
X183982830Y-119938929D01*
X183934100Y-119887898D01*
X183854824Y-119835956D01*
X183758465Y-119790140D01*
X183658482Y-119757489D01*
X183568335Y-119745041D01*
X183557443Y-119745244D01*
X183458413Y-119770849D01*
X183392346Y-119834258D01*
X183363844Y-119928223D01*
X183377510Y-120045499D01*
X183386292Y-120081275D01*
X183383577Y-120130431D01*
X183348359Y-120166531D01*
X183286234Y-120230882D01*
X183234519Y-120336677D01*
X183215106Y-120454950D01*
X182481673Y-120454950D01*
X182398757Y-120388442D01*
X182262140Y-120276708D01*
X182127638Y-120164787D01*
X182001888Y-120058271D01*
X181891527Y-119962749D01*
X181803193Y-119883814D01*
X181743521Y-119827055D01*
X181719150Y-119798064D01*
X181727529Y-119791660D01*
X181782411Y-119783252D01*
X181885298Y-119777027D01*
X182032799Y-119773162D01*
X182221523Y-119771835D01*
X182325994Y-119771479D01*
X182500970Y-119768670D01*
X182628440Y-119763153D01*
X182706396Y-119755034D01*
X182732828Y-119744423D01*
X182721967Y-119715235D01*
X182689848Y-119645971D01*
X182640376Y-119545001D01*
X182577480Y-119420340D01*
X182505090Y-119280002D01*
X182435390Y-119144043D01*
X182374581Y-119020999D01*
X182328121Y-118922106D01*
X182299629Y-118855075D01*
X182292726Y-118827618D01*
X182297376Y-118826541D01*
X182338142Y-118839247D01*
X182409319Y-118872326D01*
X182499023Y-118920432D01*
X182564170Y-118956019D01*
X182692575Y-119022124D01*
X182836270Y-119092561D01*
X182974645Y-119157074D01*
X183034785Y-119183866D01*
X183530279Y-119379767D01*
X184034554Y-119536634D01*
X184540382Y-119653058D01*
X185040535Y-119727631D01*
X185527786Y-119758944D01*
X185994906Y-119745589D01*
X186056643Y-119740438D01*
X186369279Y-119705468D01*
X186660166Y-119655564D01*
X186942181Y-119587217D01*
X187228197Y-119496920D01*
X187531090Y-119381165D01*
X187863735Y-119236445D01*
X188203571Y-119085725D01*
X188526927Y-118952498D01*
X188826186Y-118841403D01*
X189111977Y-118748749D01*
X189394930Y-118670848D01*
X189685676Y-118604009D01*
X189711037Y-118598825D01*
X189919369Y-118564304D01*
X190147870Y-118538351D01*
X190382079Y-118521733D01*
X190607537Y-118515219D01*
X190809784Y-118519576D01*
X190974360Y-118535572D01*
X191106680Y-118560151D01*
X191257722Y-118596766D01*
X191394187Y-118638339D01*
X191503223Y-118680895D01*
X191571979Y-118720458D01*
X191574768Y-118723539D01*
X191599134Y-118766661D01*
X191640732Y-118853512D01*
X191697463Y-118979098D01*
X191767226Y-119138425D01*
X191847921Y-119326498D01*
X191937448Y-119538322D01*
X192033707Y-119768903D01*
X192134597Y-120013247D01*
X192226455Y-120238061D01*
X192238017Y-120266358D01*
G37*
G36*
X189268332Y-119920938D02*
G01*
X189292042Y-119955061D01*
X189343880Y-120036108D01*
X189375994Y-120096371D01*
X189382203Y-120124784D01*
X189346761Y-120140606D01*
X189283777Y-120154261D01*
X189222725Y-120163411D01*
X189186427Y-120169719D01*
X189171203Y-120161006D01*
X189153281Y-120108731D01*
X189141310Y-120017019D01*
X189136780Y-119894145D01*
X189136414Y-119735127D01*
X189268332Y-119920938D01*
G37*
G36*
X183557492Y-120332793D02*
G01*
X183624809Y-120354106D01*
X183668141Y-120381891D01*
X183677574Y-120426823D01*
X183663133Y-120505274D01*
X183652173Y-120551067D01*
X183634281Y-120598446D01*
X183608553Y-120610509D01*
X183563111Y-120598303D01*
X183527732Y-120583286D01*
X183453956Y-120536075D01*
X183398037Y-120480717D01*
X183375866Y-120431378D01*
X183386504Y-120399951D01*
X183424399Y-120352463D01*
X183433742Y-120344505D01*
X183485679Y-120322185D01*
X183557492Y-120332793D01*
G37*
G36*
X183697594Y-119970600D02*
G01*
X183762654Y-119983166D01*
X183794943Y-119994429D01*
X183796699Y-119999232D01*
X183789745Y-120040330D01*
X183766733Y-120105223D01*
X183738802Y-120157968D01*
X183699701Y-120183641D01*
X183649271Y-120163376D01*
X183579964Y-120096833D01*
X183546171Y-120047347D01*
X183544408Y-119996897D01*
X183588047Y-119968379D01*
X183673292Y-119967069D01*
X183697594Y-119970600D01*
G37*
D13*
G04 #@! TO.C,Battery Mount (CR2032)*
X157720000Y-108040000D02*
X157720000Y-110500000D01*
X157720000Y-116500000D02*
X157720000Y-117130000D01*
X157720000Y-117130000D02*
X159160000Y-121080000D01*
X159800000Y-105960000D02*
X157720000Y-108040000D01*
X159800000Y-105960000D02*
X163300000Y-105960000D01*
X173700000Y-105960000D02*
X177200000Y-105960000D01*
X177200000Y-105960000D02*
X179280000Y-108040000D01*
X179280000Y-108040000D02*
X179280000Y-110500000D01*
X179280000Y-116500000D02*
X179280000Y-117130000D01*
X179280000Y-117130000D02*
X177840000Y-121080000D01*
X162500000Y-122050000D02*
G75*
G02*
X159174757Y-121088169I-1310000J1700000D01*
G01*
X177840000Y-121080000D02*
G75*
G02*
X174503354Y-122066530I-2030000J730001D01*
G01*
G04 #@! TD*
%LPC*%
D14*
G04 #@! TO.C,4.7 k \u03A9*
X153000000Y-91690000D03*
X153000000Y-99310000D03*
G04 #@! TD*
G04 #@! TO.C,220 \u03A9*
X158350000Y-91690000D03*
X158350000Y-99310000D03*
G04 #@! TD*
D15*
G04 #@! TO.C,D2*
X171460000Y-73500000D03*
D16*
X174000000Y-73500000D03*
G04 #@! TD*
D15*
G04 #@! TO.C,LED*
X145460000Y-85000000D03*
D16*
X148000000Y-85000000D03*
G04 #@! TD*
D14*
G04 #@! TO.C,220 \u03A9*
X183500000Y-91690000D03*
X183500000Y-99310000D03*
G04 #@! TD*
G04 #@! TO.C,220 \u03A9*
X178500000Y-91690000D03*
X178500000Y-99310000D03*
G04 #@! TD*
D17*
G04 #@! TO.C,Motor*
X188500000Y-115775000D03*
D18*
X188500000Y-113235000D03*
G04 #@! TD*
D15*
G04 #@! TO.C,LED*
X149645000Y-138000000D03*
D16*
X152185000Y-138000000D03*
G04 #@! TD*
D19*
G04 #@! TO.C,NPN*
X150400000Y-116040000D03*
D20*
X148330000Y-114770000D03*
X150400000Y-113500000D03*
G04 #@! TD*
D15*
G04 #@! TO.C,D1*
X162725000Y-73500000D03*
D16*
X165265000Y-73500000D03*
G04 #@! TD*
D21*
G04 #@! TO.C,BUTTON*
X164750000Y-82250000D03*
X171250000Y-82250000D03*
X164750000Y-86750000D03*
X171250000Y-86750000D03*
G04 #@! TD*
D14*
G04 #@! TO.C,220 \u03A9*
X163300000Y-91690000D03*
X163300000Y-99310000D03*
G04 #@! TD*
D15*
G04 #@! TO.C,LED*
X186960000Y-85500000D03*
D16*
X189500000Y-85500000D03*
G04 #@! TD*
D14*
G04 #@! TO.C,220 \u03A9*
X173500000Y-91690000D03*
X173500000Y-99310000D03*
G04 #@! TD*
G04 #@! TO.C,220 \u03A9*
X168500000Y-91690000D03*
X168500000Y-99310000D03*
G04 #@! TD*
D15*
G04 #@! TO.C,LED*
X184960000Y-138000000D03*
D16*
X187500000Y-138000000D03*
G04 #@! TD*
D22*
G04 #@! TO.C,Battery Mount (CR2032)*
X179485000Y-113500000D03*
X157515000Y-113500000D03*
D23*
X168500000Y-113500000D03*
G04 #@! TD*
%LPD*%
M02*
