M48
; DRILL file {KiCad 9.0.2} date 2025-06-21T22:02:29+0200
; FORMAT={-:-/ absolute / metric / decimal}
; #@! TF.CreationDate,2025-06-21T22:02:29+02:00
; #@! TF.GenerationSoftware,Kicad,Pcbnew,9.0.2
; #@! TF.FileFunction,Plated,1,2,PTH
FMAT,2
METRIC
; #@! TA.AperFunction,Plated,PTH,ComponentDrill
T1C0.750
; #@! TA.AperFunction,Plated,PTH,ComponentDrill
T2C0.800
; #@! TA.AperFunction,Plated,PTH,ComponentDrill
T3C0.900
; #@! TA.AperFunction,Plated,PTH,ComponentDrill
T4C1.000
; #@! TA.AperFunction,Plated,PTH,ComponentDrill
T5C1.100
%
G90
G05
T1
X148.73Y-114.77
X150.0Y-113.5
X150.0Y-116.04
T2
X153.0Y-91.69
X153.0Y-99.31
X158.35Y-91.69
X158.35Y-99.31
X163.3Y-91.69
X163.3Y-99.31
X168.5Y-91.69
X168.5Y-99.31
X173.5Y-91.69
X173.5Y-99.31
X178.5Y-91.69
X178.5Y-99.31
X183.5Y-91.69
X183.5Y-99.31
T3
X145.46Y-85.0
X148.0Y-85.0
X149.645Y-138.0
X152.185Y-138.0
X162.725Y-73.5
X165.265Y-73.5
X171.46Y-73.5
X174.0Y-73.5
X184.96Y-138.0
X186.96Y-85.5
X187.5Y-138.0
X189.5Y-85.5
T4
X188.5Y-113.235
X188.5Y-115.775
T5
X164.75Y-82.25
X164.75Y-86.75
X171.25Y-82.25
X171.25Y-86.75
M30
